<?xml version="1.0" standalone="no"?>
<!DOCTYPE svg PUBLIC "-//W3C//DTD SVG 20010904//EN"
 "http://www.w3.org/TR/2001/REC-SVG-20010904/DTD/svg10.dtd">
<svg version="1.0" xmlns="http://www.w3.org/2000/svg"
 width="89.000000pt" height="89.000000pt" viewBox="0 0 89.000000 89.000000"
 preserveAspectRatio="xMidYMid meet">
<metadata>
Created by potrace 1.11, written by Peter Selinger 2001-2013
</metadata>
<g transform="translate(0.000000,89.000000) scale(0.100000,-0.100000)"
fill="#000000" stroke="none">
<path d="M432 878 c-31 -40 -64 -141 -76 -236 -8 -63 -43 -170 -70 -217 -13
-22 -43 -51 -66 -65 -68 -41 -111 -81 -152 -145 -42 -65 -47 -106 -13 -111 11
-2 76 -5 145 -8 69 -2 126 -5 126 -5 1 -1 4 -10 7 -21 5 -19 25 -25 69 -21 9
1 19 -7 23 -19 8 -26 25 -26 32 0 4 16 14 20 45 20 31 0 41 4 45 20 3 11 6 20
7 21 0 0 55 3 121 5 171 6 188 10 179 37 -24 81 -88 161 -170 213 -29 19 -64
49 -78 67 -29 38 -66 153 -90 280 -15 77 -57 197 -69 197 -3 0 -9 -6 -15 -12z"/>
</g>
</svg>
