<svg xmlns="http://www.w3.org/2000/svg" xmlns:xlink="http://www.w3.org/1999/xlink" viewBox="0 0 174.52 166.66"><defs><linearGradient id="a" x1=".01" y1="44.73" x2="174.51" y2="44.73" gradientUnits="userSpaceOnUse"><stop offset="0" stop-color="#35b0ab"/><stop offset="1" stop-color="#644199"/></linearGradient><linearGradient id="b" x1="0" y1="121.87" x2="174.52" y2="121.87" xlink:href="#a"/></defs><g data-name="Layer 2"><g data-name="Layer 1" fill="none" stroke-miterlimit="10" stroke-width="5"><path d="M19 2.52h15.29a2 2 0 011.58.67q25.2 25 50.41 50c.93.92.93.92 1.89 0l50.39-50a2.08 2.08 0 011.6-.65h30.58a1.34 1.34 0 01.2 0c.36 0 .82-.12 1 .3s-.29.56-.51.77l-16.12 16.04Q121.74 53 88.18 86.39c-.74.74-1.11.76-1.85 0Q45.13 45.41 3.9 4.46A11.63 11.63 0 013 3.6c-.19-.24-.68-.36-.48-.77s.62-.32 1-.32H19z" stroke="url(#a)"/><path d="M19.12 79.6H34a2.79 2.79 0 012.2.93Q61.06 105.25 86 130c1.28 1.27 1.28 1.27 2.53 0q25-24.82 50-49.66a2.3 2.3 0 011.77-.73h30.47a3.13 3.13 0 01.81 0c.43.1.68.34.28.78-.16.17-.33.33-.5.5l-83.1 82.46a3.49 3.49 0 00-.43.43c-.41.56-.72.46-1.17 0q-4.29-4.31-8.62-8.57L3.24 81c-.17-.17-.33-.34-.5-.5-.49-.48-.14-.71.28-.84a2.73 2.73 0 01.81 0z" stroke="url(#b)"/></g></g></svg>