<svg xmlns="http://www.w3.org/2000/svg" viewBox="0 0 1167.62 939.28"><defs><style>.cls-7{fill:#101112}.cls-12{fill:#231f20}.cls-9{fill:#e4bd40}.cls-10{fill:#fff}.cls-11{fill:#332300}.cls-13{fill:#b37140}</style><linearGradient id="linear-gradient" x1="114.17" y1="469.64" x2="1053.45" y2="469.64" gradientUnits="userSpaceOnUse"><stop offset="0" stop-color="#35b0ab"/><stop offset="1" stop-color="#644199"/></linearGradient></defs><g id="Layer_2" data-name="Layer 2"><g id="Layer_1-2" data-name="Layer 1"><circle cx="583.81" cy="469.64" r="469.64" fill="url(#linear-gradient)"/><path d="M298.59 425.12s-142.19 292 55.9 316c0 0 117-19.23 221-111.23 0 0 129.11 144.58 261.11 115.91s22.65-336.68 22.65-336.68-320.66-194-560.66 16z" stroke-miterlimit="10" stroke="#231f20" fill="#101112"/><path d="M695.42 603.69s-1.47 161.55 34 197.87c0 0-50.53 73.49-138.45 90.38h-6.3c-87.92-16.89-138.46-90.38-138.46-90.38 35.48-36.32 34-197.87 34-197.87z" fill="#cc8e4b" stroke="#cc8e4b" stroke-miterlimit="10"/><path d="M714 599.09s-28.68 88.18-122.79 110.23h-6.23C490.81 687.27 460 599.09 460 599.09z" fill="#ba7d46" stroke="#ba7d46" stroke-miterlimit="10"/><path d="M587.81 693.12c78 0 138.74-84.63 171.93-146.27 39-72.44 43.14-160.2 28.07-239.73-36-190-200-194-200-194s-164 4-200 194c-15.07 79.53-10.93 167.29 28.07 239.73 33.19 61.64 93.97 146.27 171.93 146.27z" fill="#dc9e53" stroke="#dc9e53" stroke-miterlimit="10"/><circle cx="743.91" cy="369.59" r="2.05" fill="#231f20" stroke-miterlimit="10" stroke="#231f20"/><path class="cls-7" d="M583.29 127.89c-10.93-.15-7.26-42.77-7.26-42.77 1.21-10.34 56.26-26 66-28.62 18.72-5 38.19-7.36 57.53-5.58 45 4.14 82.9 35.26 107.25 71.94 18.14 27.33 32.58 79.83 75.93 65.39 62.26-20.74 120.14 25.41 146.69 78.75 27.34 54.9 19.43 118.31 12 175.81-.57 4.35-1.06 9.07 1.14 12.86 3.46 5.93 11.51 6.72 18.34 7.42 58.35 6 109.49 57.44 106.64 117.66a157.68 157.68 0 0 1-13.15 54.94C1148 650.27 1132.45 663 1134 680c.73 8 3.94 15.59 6.65 23.18 17 47.72 20.7 113.47-26.35 145.27-48.29 32.65-120 22.13-173.46 10.94-24.36-5.09-60.24-26-84.56-24.29-173.76 12-156.25-152-156.25-152 4.4-41.2 46-71.06 84.71-47.6 4.64 2.81 9.22 6.42 14.64 6.61 21.06.75 31.77-42.18 32.5-57.46 1.19-24.81-12.15-44.91-33-57.56-38.09-23.13-54.18-36.52-62.43-79.66-8.62-45 37.47-98.82 35.4-142.44-1.19-25.07-20.73-48.6-37-66-24.3-25.89-49.39-18.45-77.42-39.49-11.13-8.35-28.66-35.79-33.11-47.64-8.22-21.75-22.21-23.71-41.03-23.97z"/><path class="cls-7" d="M583.29 127.89c-10.93-.15-7.26-42.77-7.26-42.77 1.21-10.34 56.26-26 66-28.62 18.72-5 38.19-7.36 57.53-5.58 45 4.14 82.9 35.26 107.25 71.94 18.14 27.33 32.58 79.83 75.93 65.39 62.26-20.74 120.14 25.41 146.69 78.75 27.34 54.9 19.43 118.31 12 175.81-.57 4.35-1.06 9.07 1.14 12.86 3.46 5.93 11.51 6.72 18.34 7.42 58.35 6 109.49 57.44 106.64 117.66a157.68 157.68 0 0 1-13.15 54.94C1148 650.27 1132.45 663 1134 680c.73 8 3.94 15.59 6.65 23.18 17 47.72 20.7 113.47-26.35 145.27-48.29 32.65-120 22.13-173.46 10.94-24.36-5.09-60.24-26-84.56-24.29-173.76 12-156.25-152-156.25-152 4.4-41.2 46-71.06 84.71-47.6 4.64 2.81 9.22 6.42 14.64 6.61 21.06.75 31.77-42.18 32.5-57.46 1.19-24.81-12.15-44.91-33-57.56-38.09-23.13-54.18-36.52-62.43-79.66-8.62-45 37.47-98.82 35.4-142.44-1.19-25.07-20.73-48.6-37-66-24.3-25.89-49.39-18.45-77.42-39.49-11.13-8.35-28.66-35.79-33.11-47.64-8.22-21.75-22.21-23.71-41.03-23.97z"/><path class="cls-7" d="M583.29 127.89c-10.93-.15-7.26-42.77-7.26-42.77 1.21-10.34 56.26-26 66-28.62 18.72-5 38.19-7.36 57.53-5.58 45 4.14 82.9 35.26 107.25 71.94 18.14 27.33 32.58 79.83 75.93 65.39 62.26-20.74 120.14 25.41 146.69 78.75 27.34 54.9 19.43 118.31 12 175.81-.57 4.35-1.06 9.07 1.14 12.86 3.46 5.93 11.51 6.72 18.34 7.42 58.35 6 109.49 57.44 106.64 117.66a157.68 157.68 0 0 1-13.15 54.94C1148 650.27 1132.45 663 1134 680a64.35 64.35 0 0 0 6.65 23.18c18.08 36.06-6.08 130.68-56.59 151.11C1042.82 871 1021.72 823 955 829.56c-53.53 5.28-56.69 39.1-111.5 43.92-5.9.52-87.42 5.9-136.84-54.06-8.66-10.51-38.5-49.88-29.56-98.83 5.55-30.4 22.63-49.47 38.85-67.57 12-13.38 23.51-25.89 38.75-25.72 11.42.13 28.39 7.2 30.07 8.22 4.64 2.81 9.22 6.42 14.64 6.61 21.06.75 31.77-42.18 32.5-57.46 1.19-24.81-12.15-44.91-33-57.56-38.09-23.13-54.18-36.52-62.43-79.66-8.62-45 37.47-98.82 35.4-142.44-1.19-25.07-20.73-48.6-37-66-24.3-25.89-49.39-18.45-77.42-39.49-11.13-8.35-28.66-35.79-33.11-47.64-8.25-21.77-22.24-23.73-41.06-23.99z"/><path class="cls-7" d="M572.36 127.74c15.45-16.62 3.56-45.62 3.56-45.62-184-108-254 70-254 70-5.65 12.71-13.31 37-29.73 38.24-7.8.58-15.37-2.34-22.88-4.54C145.55 149.68 98.1 311.17 137.62 403.43c15.69 36.62-7.49 39.72-38.42 42.79-18.51 1.85-35.76 11.09-49.5 23.63-17.58 16-31.11 37.39-39.68 59.52a151.83 151.83 0 0 0-6.19 88.13c6.17 27.06 17.71 52.5 9.85 80.93-16 57.64-21.95 134 46.44 158.86 89.61 32.57 190.5-15 279-30.48 43.47-7.59 79.8-22.28 99.25-64.81 11.29-24.66 16.48-54.76 13.58-81.89-3-28.51-8.91-68-38.75-80.93-9.21-4-19.18-6.2-28-11-21.88-12.08-38.13-42.65-46.07-65.34-5.19-14.82-6.82-31.43-1.33-46.15 9.77-26.22 30-46.06 48.58-66.17 17.75-19.23 46.23-35 55.63-59.43 8.87-23-19.35-47.56-22.14-72.65-4.12-37.2 43.95-87.22 83.83-99.43 6.79-2.08 14-3 20.34-6.22 15-7.58 9.25-24.42 18.6-35.76 7.25-8.83 18.93-11.29 29.72-9.29z"/><path class="cls-7" d="M572.36 127.74c15.45-16.62 3.56-45.62 3.56-45.62-184-108-254 70-254 70-5.65 12.71-13.31 37-29.73 38.24-7.8.58-15.37-2.34-22.88-4.54C145.55 149.68 98.1 311.17 137.62 403.43c15.69 36.62-7.49 39.72-38.42 42.79-18.51 1.85-35.76 11.09-49.5 23.63-17.58 16-31.11 37.39-39.68 59.52a151.83 151.83 0 0 0-6.19 88.13c6.17 27.06 17.71 52.5 9.85 80.93-26.4 95.39 27.32 145.94 46.44 158.86 39.13 26.4 72-28.86 172.93-30 94.63-1 140.62 46.67 192.59 13.52 25.77-16.45 41.07-45.17 43.92-50.68a145.21 145.21 0 0 0 15.5-76.6c-5.23-69-59.29-110.84-71.89-114.36a192.09 192.09 0 0 1-19.28-6.83 83.1 83.1 0 0 1-8.68-4.21c-21.88-12.08-38.13-42.65-46.07-65.34-5.19-14.82-6.82-31.43-1.33-46.15 9.77-26.22 30-46.06 48.58-66.17 17.75-19.23 46.23-35 55.63-59.43 8.87-23-19.35-47.56-22.14-72.65-4.12-37.2 43.95-87.22 83.83-99.43 6.79-2.08 14-3 20.34-6.22 15-7.58 9.25-24.42 18.6-35.76 7.24-8.78 18.92-11.24 29.71-9.24z"/><path class="cls-7" d="M572.36 127.74c15.45-16.62 3.56-45.62 3.56-45.62-184-108-254 70-254 70-5.65 12.71-13.31 37-29.73 38.24-7.8.58-15.37-2.34-22.88-4.54C145.55 149.68 98.1 311.17 137.62 403.43c15.69 36.62-7.49 39.72-38.42 42.79-18.51 1.85-35.76 11.09-49.5 23.63-17.58 16-31.11 37.39-39.68 59.52a151.83 151.83 0 0 0-6.19 88.13c6.17 27.06 17.71 52.5 9.85 80.93-25.79 93.19 27.25 142.46 46.44 158.86 58.45 49.94 168.43 27.36 214-27.73 32.11-38.8 23.46-81.23 49-87.85 35.35-9.16 66.21 68.94 102.49 60.82 30.44-6.82 45.34-70 39.41-114.88-7.33-55.52-47-85.79-51.88-88.47-13-7.11-14.12-3.41-28-11-21.88-12.08-38.13-42.65-46.07-65.34-5.19-14.82-6.82-31.43-1.33-46.15 9.77-26.22 30-46.06 48.58-66.17 17.75-19.23 46.23-35 55.63-59.43 8.87-23-19.35-47.56-22.14-72.65-4.12-37.2 43.95-87.22 83.83-99.43 6.79-2.08 14-3 20.34-6.22 15-7.58 9.25-24.42 18.6-35.76 7.31-8.83 18.99-11.29 29.78-9.29z"/><path d="M625.29 281.49S718.37 250 731.87 253c0 0 14.8 1.61 30 21-15.93-20.33-52.26 1.38-69.88 8.37L637.38 304s-9.76-1.6-12.09-22.51zm-88.42 0S443.78 250 430.28 253c0 0-14.8 1.61-30 21 15.93-20.33 52.26 1.38 69.88 8.37L524.78 304s9.76-1.6 12.09-22.51z" stroke="#000" stroke-miterlimit="10"/><path d="M543 456.89a46.85 46.85 0 0 0-5.19 8.08 22.57 22.57 0 0 0-2.61 9 11.62 11.62 0 0 0 .66 4.45 9.9 9.9 0 0 0 2.43 3.69 19.86 19.86 0 0 0 8 4.25l.5.15.21.56a30.7 30.7 0 0 0 2.65 5.07 37.52 37.52 0 0 0 3.58 4.55 34.44 34.44 0 0 0 9.11 7c.84.46 1.75.81 2.62 1.23.44.19.87.41 1.32.58l1.37.46c.92.29 1.82.65 2.76.89l2.84.62c.47.1.94.23 1.42.29l1.45.16 2.89.33c2 .1 3.94.06 5.91.1s3.94 0 5.9-.1l2.89-.33 1.45-.16c.48-.06 1-.2 1.42-.29l2.84-.63c.94-.23 1.84-.59 2.76-.88l1.37-.46c.45-.18.88-.4 1.32-.59.87-.41 1.78-.76 2.62-1.22a34.27 34.27 0 0 0 9.1-7.05 35.91 35.91 0 0 0 3.59-4.55 29.16 29.16 0 0 0 2.64-5.07l.22-.55.5-.15a20 20 0 0 0 8-4.25 9.78 9.78 0 0 0 2.43-3.69 11.44 11.44 0 0 0 .67-4.45 22.78 22.78 0 0 0-2.61-9 46.85 46.85 0 0 0-5.19-8.08 40.53 40.53 0 0 1 5.82 7.74 23.49 23.49 0 0 1 3.3 9.24 12.28 12.28 0 0 1-.48 5.06 11.51 11.51 0 0 1-2.64 4.43 21 21 0 0 1-8.67 5.07l.72-.71a33 33 0 0 1-6.41 10.67 37.32 37.32 0 0 1-9.67 7.78c-7.31 4-15.84 5.46-23.91 5.21-8.08.24-16.61-1.21-23.92-5.21a37 37 0 0 1-9.66-7.79 32.87 32.87 0 0 1-6.41-10.66l.71.71a21 21 0 0 1-8.66-5.07 11.51 11.51 0 0 1-2.64-4.43 12.28 12.28 0 0 1-.48-5.06 23.48 23.48 0 0 1 3.29-9.24 40.53 40.53 0 0 1 5.87-7.7z"/><path class="cls-9" d="M526.69 482a12.26 12.26 0 0 1 23.19-8c0-.14-.06-.27-.11-.41a13.37 13.37 0 1 0-4.84 14.95 12 12 0 0 1-2.77 1.31 12.27 12.27 0 0 1-15.47-7.85z"/><path class="cls-9" d="M526.69 482a12.71 12.71 0 0 1 7.54-15.76 13.08 13.08 0 0 1 9.76.15 13.27 13.27 0 0 1 7.11 7.18l-2.47.81a11.94 11.94 0 0 0-18.09-6 11.78 11.78 0 0 0-4.3 5.65 11.94 11.94 0 0 0 3.7 13.34 12.27 12.27 0 0 0 7.08 2.77 12.49 12.49 0 0 0 7.6-2l.6.88a12.76 12.76 0 0 1-5.48 1.69 12.69 12.69 0 0 1-13-8.7zm0 0a12 12 0 0 0 7.57 7.61 12.31 12.31 0 0 0 5.42.5 11.84 11.84 0 0 0 5-2l.59.88a14.35 14.35 0 0 1-3.83 2.18 15.52 15.52 0 0 1-4.39.9 14.62 14.62 0 0 1-8.7-2.45 14.55 14.55 0 0 1-5.66-7.36 15 15 0 0 1 5.59-17.11 14.94 14.94 0 0 1 18 .67 14.8 14.8 0 0 1 4.91 7.83l-2.47.81a11.18 11.18 0 0 0-5.38-6.58 11.45 11.45 0 0 0-8.79-.9 11.77 11.77 0 0 0-7 5.8 12 12 0 0 0-1.32 4.52 12.27 12.27 0 0 0 .46 4.7z"/><path class="cls-10" d="M708 332.37a24.5 24.5 0 1 1-39.48 19.38 24.8 24.8 0 0 1 .73-5.95c-2.83 1.3-38.13 17.83-21.59 24.11 86 32.64 94.11-33.26 94.11-33.26-7.77-6.65-20.34-6.97-33.77-4.28z"/><path d="M708.06 332.38a24.43 24.43 0 0 1 9.25 23.34 27.84 27.84 0 0 1-.72 3.23c-.16.52-.37 1-.55 1.56l-.29.77c-.1.26-.23.5-.35.75l-.71 1.49-.86 1.42a12.69 12.69 0 0 1-.93 1.37c-.34.43-.64.9-1 1.31a26.11 26.11 0 0 1-4.88 4.45c-.45.33-.93.59-1.4.89a11.36 11.36 0 0 1-1.45.8l-1.49.72-1.55.58-.78.28-.81.21c-.53.14-1.07.29-1.6.41a28.18 28.18 0 0 1-3.29.42l-1.66.08-1.66-.08h-.83l-.82-.12L688 376a24.78 24.78 0 0 1-11.69-6 26.07 26.07 0 0 1-2.32-2.38c-.35-.42-.67-.88-1-1.32l-.5-.66-.43-.71a24.81 24.81 0 0 1-2.78-6 25.33 25.33 0 0 1-.34-13.16l.43.36a124.35 124.35 0 0 0-17.06 9.54 32.33 32.33 0 0 0-7.24 6.38c-.93 1.24-1.71 2.78-1.33 4.21s1.84 2.36 3.26 3 3.06 1.11 4.58 1.66 3.07 1.11 4.63 1.6l4.68 1.4c.79.23 1.56.48 2.35.69l2.38.58a103.88 103.88 0 0 0 19.25 3.13 67.23 67.23 0 0 0 19.36-1.3 47.69 47.69 0 0 0 17.62-7.84 47 47 0 0 0 7.19-6.48 51.18 51.18 0 0 0 5.71-7.86 54 54 0 0 0 6.7-18.18l.11.27a22.62 22.62 0 0 0-7.55-4.17 34.91 34.91 0 0 0-8.55-1.61 55.71 55.71 0 0 0-8.76.11c-2.89.18-5.81.65-8.64 1.12zm-.09 0a75.2 75.2 0 0 1 8.73-1.42 56.21 56.21 0 0 1 8.8-.27 34.39 34.39 0 0 1 8.7 1.53 23.08 23.08 0 0 1 7.78 4.21l.13.11v.17a51.17 51.17 0 0 1-2.48 9.55 54.58 54.58 0 0 1-4.14 8.95 51.67 51.67 0 0 1-5.73 8.06 45.8 45.8 0 0 1-25.27 14.69 67.51 67.51 0 0 1-19.64 1.3 103.56 103.56 0 0 1-19.43-3.26l-2.39-.6c-.79-.21-1.57-.47-2.35-.7l-4.68-1.44c-1.56-.5-3.09-1.09-4.64-1.63s-3.08-1.05-4.63-1.7a9.5 9.5 0 0 1-2.19-1.33 4.4 4.4 0 0 1-1.48-2.18 4.31 4.31 0 0 1 .2-2.64 8.8 8.8 0 0 1 1.26-2.22 33.14 33.14 0 0 1 7.44-6.51 124.91 124.91 0 0 1 17.2-9.53l.6-.28-.17.64a24.86 24.86 0 0 0 .29 12.84 24.1 24.1 0 0 0 2.69 5.91l.42.69.49.65c.32.43.63.88 1 1.3a25 25 0 0 0 2.26 2.34 24.45 24.45 0 0 0 11.43 5.92l1.61.25.81.12.81.05 1.6.05 1.63-.07a27.28 27.28 0 0 0 3.24-.39c.53-.12 1-.26 1.58-.39l.79-.21.77-.27 1.53-.56 1.48-.7a11.75 11.75 0 0 0 1.43-.79c.46-.29.94-.54 1.38-.86a26.12 26.12 0 0 0 4.84-4.37c.37-.41.67-.86 1-1.29a11.17 11.17 0 0 0 .93-1.35l.85-1.39.72-1.47c.12-.25.24-.49.35-.74l.29-.77c.18-.51.39-1 .55-1.54a26.78 26.78 0 0 0 .73-3.19 24.21 24.21 0 0 0-1.33-12.88 23.68 23.68 0 0 0-3.18-5.71 27.71 27.71 0 0 0-4.58-4.7z"/><path class="cls-11" d="M693 376.25a24.5 24.5 0 0 0 15-43.88c-13.31 2.67-27.48 8.26-38.74 13.43A24.48 24.48 0 0 0 693 376.25z"/><path d="M693 376.2a26.82 26.82 0 0 0 7.45-1.22 24.65 24.65 0 0 0 6.65-3.52 25.2 25.2 0 0 0 8.65-11.94 24.94 24.94 0 0 0 .45-14.74 23.69 23.69 0 0 0-8.31-12.28h.13a133.15 133.15 0 0 0-19.65 5.84q-9.61 3.57-18.91 7.91l.29-.35a24.27 24.27 0 0 0-.22 10.79 25.41 25.41 0 0 0 4.5 9.84 23.91 23.91 0 0 0 19 9.64zm0 .1a25.62 25.62 0 0 1-10.81-2.39 24.33 24.33 0 0 1-8.81-6.85 24.6 24.6 0 0 1-4.84-10.13 25 25 0 0 1 .18-11.26l.07-.25.22-.1c6.26-2.82 12.61-5.44 19.1-7.68 3.25-1.12 6.53-2.12 9.83-3s6.65-1.72 10-2.39h.13a25.77 25.77 0 0 1 8.66 12.38 24.46 24.46 0 0 1-.15 15.18 22.72 22.72 0 0 1-3.64 6.79 23 23 0 0 1-5.56 5.27 25.36 25.36 0 0 1-6.87 3.32 27 27 0 0 1-7.51 1.11z"/><path class="cls-12" d="M645.15 361.32s52.67-33.91 95.17-24.67c0 0 16.51 4.13 23-12.26 0 0-7 9.46-23 8 0-.02-45.18-18.57-95.17 28.93z"/><path class="cls-12" d="M645.19 361.29c-.06-.06 0 0 0-.08l.1-.06.22-.14.43-.27.85-.52 1.73-1c1.16-.68 2.33-1.35 3.5-2q3.53-2 7.12-3.8 7.19-3.67 14.63-6.8a163.85 163.85 0 0 1 30.75-9.67c10.55-2.09 21.47-2.92 32.17-1.26 1.33.21 2.68.47 4 .75a21.64 21.64 0 0 0 3.94.37 20.49 20.49 0 0 0 7.76-1.37 17 17 0 0 0 6.45-4.42 21.88 21.88 0 0 0 4.1-6.73l.69.39a20.36 20.36 0 0 1-4.87 4.22 26.12 26.12 0 0 1-5.82 2.71 31.83 31.83 0 0 1-12.68 1.28h-.13a58.87 58.87 0 0 0-12.59-2.88 80 80 0 0 0-12.95-.57 92.89 92.89 0 0 0-25.46 4.74 111.17 111.17 0 0 0-12 4.92 113.63 113.63 0 0 0-11.35 6.37 151.5 151.5 0 0 0-20.59 15.82zm-.08.07a127.22 127.22 0 0 1 20.35-16.45 115.79 115.79 0 0 1 11.34-6.54 114.13 114.13 0 0 1 12.07-5.09 97.37 97.37 0 0 1 12.66-3.42 85.37 85.37 0 0 1 13-1.49 81 81 0 0 1 13.12.57 57.47 57.47 0 0 1 12.81 3h-.13a31.12 31.12 0 0 0 12.33-1.17 25 25 0 0 0 5.63-2.59 19.37 19.37 0 0 0 4.68-4l1.71-2.1-1 2.49a22.35 22.35 0 0 1-4.28 6.94 17.76 17.76 0 0 1-6.75 4.59 21.36 21.36 0 0 1-8 1.38 22.37 22.37 0 0 1-4.07-.4c-1.32-.29-2.61-.55-3.94-.76-10.59-1.7-21.46-.93-32 1.1a164 164 0 0 0-30.74 9.46 213.41 213.41 0 0 0-28.79 14.48z"/><path class="cls-10" d="M463.13 332.37a24.5 24.5 0 1 0 39.48 19.38 24.8 24.8 0 0 0-.72-5.95c2.83 1.3 38.12 17.83 21.59 24.11-86 32.64-94.11-33.26-94.11-33.26 7.81-6.65 20.35-6.97 33.76-4.28z"/><path d="M463.18 332.36a27.77 27.77 0 0 0-4.6 4.73 24.21 24.21 0 0 0-4.5 18.59 25 25 0 0 0 .73 3.19c.16.52.37 1 .55 1.54l.28.77c.11.25.24.49.36.74l.71 1.47.86 1.39a11.08 11.08 0 0 0 .92 1.35c.34.43.64.88 1 1.29a26.38 26.38 0 0 0 4.83 4.37c.45.32.93.57 1.39.86a11.05 11.05 0 0 0 1.43.79l1.47.7 1.54.56.77.27.79.21c.53.13 1 .27 1.58.39a27.28 27.28 0 0 0 3.24.39l1.63.07 1.63-.08.81-.05.81-.12 1.61-.25a24.55 24.55 0 0 0 11.43-5.92 25 25 0 0 0 2.26-2.34c.34-.42.65-.87 1-1.3l.49-.65.42-.69a24.1 24.1 0 0 0 2.69-5.91 24.75 24.75 0 0 0 .28-12.84l-.16-.64.6.28a124.22 124.22 0 0 1 17.19 9.53 33.18 33.18 0 0 1 7.45 6.51 9.12 9.12 0 0 1 1.26 2.22 4 4 0 0 1-1.29 4.82 9.44 9.44 0 0 1-2.18 1.33c-1.55.65-3.09 1.13-4.63 1.7s-3.08 1.13-4.64 1.63l-4.71 1.43c-.78.23-1.56.49-2.36.7l-2.38.6a103.56 103.56 0 0 1-19.41 3.25 67.6 67.6 0 0 1-19.65-1.3 45.92 45.92 0 0 1-25.27-14.69 52.28 52.28 0 0 1-5.72-8.06 54.58 54.58 0 0 1-4.14-8.95 50.41 50.41 0 0 1-2.48-9.55v-.17l.14-.11a23.08 23.08 0 0 1 7.79-4.21 34.39 34.39 0 0 1 8.69-1.53 56.3 56.3 0 0 1 8.81.27 75.55 75.55 0 0 1 8.68 1.42zm-.1 0c-2.82-.47-5.74-.94-8.65-1.17a55.72 55.72 0 0 0-8.76-.11 34.91 34.91 0 0 0-8.55 1.61 22.53 22.53 0 0 0-7.55 4.17l.11-.27a54 54 0 0 0 6.7 18.18 51.8 51.8 0 0 0 5.7 7.86A46.38 46.38 0 0 0 466.89 377a67.32 67.32 0 0 0 19.37 1.3 103.88 103.88 0 0 0 19.25-3.13l2.38-.58c.79-.21 1.56-.46 2.34-.69l4.69-1.4c1.56-.49 3.09-1.07 4.63-1.6s3.11-1.05 4.58-1.66 2.85-1.57 3.25-3-.39-3-1.32-4.21a32.33 32.33 0 0 0-7.24-6.38 124.35 124.35 0 0 0-17.06-9.54l.43-.36a24.61 24.61 0 0 1-3.12 19.19l-.43.71-.5.66c-.34.44-.66.9-1 1.32a26.07 26.07 0 0 1-2.32 2.38 24.83 24.83 0 0 1-11.69 6l-1.64.25-.83.12h-.82l-1.66.08-1.66-.08a28.18 28.18 0 0 1-3.29-.42c-.54-.12-1.07-.27-1.61-.41l-.8-.21-.78-.28-1.55-.58-1.49-.72a11.36 11.36 0 0 1-1.45-.8c-.47-.3-1-.56-1.4-.89a26.11 26.11 0 0 1-4.88-4.45c-.37-.41-.67-.88-1-1.31a12.69 12.69 0 0 1-.93-1.37l-.86-1.42-.72-1.49c-.11-.25-.24-.49-.35-.75l-.28-.77c-.18-.52-.39-1-.55-1.56a27.84 27.84 0 0 1-.72-3.23 24.4 24.4 0 0 1 9.24-23.34z"/><path class="cls-11" d="M478.11 376.25a24.5 24.5 0 0 1-15-43.88c13.32 2.67 27.49 8.26 38.75 13.43a24.51 24.51 0 0 1-23.77 30.45z"/><path d="M478.11 376.3a26.94 26.94 0 0 1-7.51-1.12 25.36 25.36 0 0 1-6.87-3.32 24 24 0 0 1-9.21-12.06 24.46 24.46 0 0 1-.14-15.18 25.82 25.82 0 0 1 8.62-12.38h.13c3.37.67 6.7 1.49 10 2.39s6.59 1.92 9.84 3c6.49 2.24 12.84 4.86 19.09 7.68l.23.1.06.25a25 25 0 0 1 .19 11.26 24.5 24.5 0 0 1-4.85 10.13 24.21 24.21 0 0 1-8.8 6.85 25.63 25.63 0 0 1-10.78 2.4zm0-.1a23.91 23.91 0 0 0 19-9.64 25.25 25.25 0 0 0 4.49-9.84 24.12 24.12 0 0 0-.21-10.79l.29.35q-9.3-4.33-18.91-7.91a133.15 133.15 0 0 0-19.65-5.84h.13a23.77 23.77 0 0 0-8.32 12.28 25.1 25.1 0 0 0 .45 14.74 25.31 25.31 0 0 0 8.62 11.91 24.74 24.74 0 0 0 6.64 3.52 26.88 26.88 0 0 0 7.47 1.22z"/><path class="cls-12" d="M525.52 360.56s-52.65-34.15-95.15-24.91c0 0-16.51 4.13-23-12.26 0 0 7 9.46 23 8 0-.02 45.16-18.33 95.15 29.17z"/><path class="cls-12" d="M525.56 360.59A212.46 212.46 0 0 0 496.78 346a163.25 163.25 0 0 0-30.73-9.55c-10.51-2.06-21.38-2.85-32-1.15-1.33.21-2.62.47-3.95.75a22.74 22.74 0 0 1-12.11-1 17.74 17.74 0 0 1-6.75-4.58 22.71 22.71 0 0 1-4.28-6.95l-1-2.49 1.71 2.1a19.56 19.56 0 0 0 4.68 4 24.84 24.84 0 0 0 5.64 2.59 31.05 31.05 0 0 0 12.32 1.17h-.13A58.18 58.18 0 0 1 443 328a80.93 80.93 0 0 1 13.11-.53 85.3 85.3 0 0 1 13 1.54 97.38 97.38 0 0 1 12.65 3.46 112.21 112.21 0 0 1 12.07 5.11 120.26 120.26 0 0 1 11.33 6.55 128.76 128.76 0 0 1 20.4 16.46zm-.08-.06a151.55 151.55 0 0 0-20.57-15.92 116.75 116.75 0 0 0-11.34-6.38 109.31 109.31 0 0 0-12-4.94 93.3 93.3 0 0 0-25.45-4.82 78.92 78.92 0 0 0-12.95.51 59 59 0 0 0-12.6 2.83h-.13a31.83 31.83 0 0 1-12.68-1.28 25.84 25.84 0 0 1-5.81-2.71 20.21 20.21 0 0 1-4.88-4.22l.69-.39a21.88 21.88 0 0 0 4.1 6.73 17.18 17.18 0 0 0 6.46 4.43 20.68 20.68 0 0 0 7.76 1.36 21.76 21.76 0 0 0 3.95-.38c1.3-.27 2.65-.53 4-.74 10.7-1.66 21.63-.81 32.17 1.31a163.17 163.17 0 0 1 30.75 9.76q7.44 3.14 14.61 6.84 3.6 1.84 7.11 3.83c1.17.66 2.34 1.33 3.49 2l1.73 1 .86.53.42.27.22.14.1.07s.05.1-.01.17zm117.8 3.86s52.67-33.92 95.18-24.68c0 0 16.5 4.14 23-12.26 0 0-7 9.46-23 8 0-.01-45.19-18.56-95.18 28.94z"/><path class="cls-12" d="M643.32 364.36c-.06-.06 0 0 0-.08l.11-.07.21-.13.43-.27.86-.53 1.73-1c1.15-.69 2.32-1.36 3.49-2q3.52-2 7.12-3.81c4.79-2.44 9.66-4.72 14.63-6.79a163.75 163.75 0 0 1 30.8-9.68c10.54-2.09 21.46-2.92 32.16-1.25 1.33.21 2.68.47 4 .74a21.65 21.65 0 0 0 3.94.38 20.89 20.89 0 0 0 7.76-1.37A17 17 0 0 0 757 334a22 22 0 0 0 4.1-6.72l.69.38a20.14 20.14 0 0 1-4.87 4.22 26.15 26.15 0 0 1-5.82 2.72 32.19 32.19 0 0 1-12.68 1.28h-.13a58.87 58.87 0 0 0-12.6-2.88 80 80 0 0 0-13-.56 92.52 92.52 0 0 0-25.46 4.74 109.12 109.12 0 0 0-12 4.91 115.74 115.74 0 0 0-11.35 6.38 151.5 151.5 0 0 0-20.56 15.89zm-.08.06A128.16 128.16 0 0 1 663.59 348a114.94 114.94 0 0 1 11.34-6.54 112.08 112.08 0 0 1 12.07-5.11 98.73 98.73 0 0 1 12.67-3.43 86.36 86.36 0 0 1 13-1.49 79.91 79.91 0 0 1 13.12.58 58 58 0 0 1 12.81 3h-.13a31.12 31.12 0 0 0 12.33-1.17 25.45 25.45 0 0 0 5.63-2.6 19.33 19.33 0 0 0 4.68-4l1.71-2.1-1 2.48a22.29 22.29 0 0 1-4.28 6.95 17.87 17.87 0 0 1-6.75 4.59 21.36 21.36 0 0 1-8 1.38 23.31 23.31 0 0 1-4.07-.41c-1.32-.28-2.61-.54-3.94-.76-10.59-1.69-21.45-.93-32 1.11a163.3 163.3 0 0 0-30.74 9.46 212.18 212.18 0 0 0-28.8 14.48z"/><path class="cls-12" d="M643.68 363.72c3.43.24 6.84.56 10.25.93s6.82.79 10.21 1.3 6.77 1.07 10.12 1.81a68.77 68.77 0 0 1 9.89 2.78 70.59 70.59 0 0 0-9.92-2.6c-3.36-.67-6.75-1.18-10.14-1.62s-6.8-.81-10.21-1.11-6.83-.56-10.24-.74z"/><path class="cls-10" d="M502 345.8c2.83 1.3 38.12 17.83 21.59 24.11-86 32.64-94.11-33.26-94.11-33.26 7.81-6.69 20.35-7 33.76-4.28s27.46 8.26 38.76 13.43"/><path class="cls-12" d="M502 345.76a124.74 124.74 0 0 1 17.17 9.48 33 33 0 0 1 7.4 6.45 8.45 8.45 0 0 1 1.23 2.17 4 4 0 0 1 .2 2.5 4.24 4.24 0 0 1-1.41 2.08 9.36 9.36 0 0 1-2.13 1.3c-1.53.65-3.08 1.13-4.62 1.7s-3.07 1.13-4.63 1.63l-4.7 1.44c-.79.23-1.56.49-2.36.7l-2.38.6a104.94 104.94 0 0 1-19.37 3.25 67.55 67.55 0 0 1-19.6-1.26 48.51 48.51 0 0 1-18-7.94 47.54 47.54 0 0 1-7.33-6.63 51.8 51.8 0 0 1-5.79-8 54 54 0 0 1-6.68-18.52v-.26l.21-.18a24 24 0 0 1 8.55-4.52 36.77 36.77 0 0 1 9.53-1.43 76.72 76.72 0 0 1 19 2.31 154.61 154.61 0 0 1 18.25 5.64c6 2.21 11.79 4.77 17.54 7.48v.09c-5.8-2.59-11.71-4.93-17.68-7.09a155 155 0 0 0-18.4-5.39 75.91 75.91 0 0 0-18.79-2.05 36.6 36.6 0 0 0-9.21 1.39 23.06 23.06 0 0 0-8.19 4.33l.17-.44a49.72 49.72 0 0 0 2.48 9.36 55 55 0 0 0 4.1 8.8 50.45 50.45 0 0 0 5.63 7.91 46.72 46.72 0 0 0 7.15 6.55 47.66 47.66 0 0 0 17.64 7.9 66.89 66.89 0 0 0 19.41 1.34 103.47 103.47 0 0 0 19.29-3.13l2.38-.58c.79-.21 1.56-.46 2.35-.69l4.69-1.39c1.56-.49 3.09-1.07 4.64-1.6s3.1-1 4.59-1.66 2.93-1.6 3.38-3.13-.42-3.13-1.35-4.39a32.8 32.8 0 0 0-7.29-6.45 124.82 124.82 0 0 0-17.07-9.58z"/><path class="cls-10" d="M669.34 345.8c-2.83 1.3-38.13 17.83-21.59 24.11 86 32.64 94.11-33.26 94.11-33.26-7.81-6.69-20.35-7-33.77-4.28s-27.48 8.26-38.75 13.43"/><path d="M669.36 345.85a124.82 124.82 0 0 0-17.08 9.58 32.58 32.58 0 0 0-7.29 6.45c-.94 1.26-1.76 2.85-1.35 4.39s1.93 2.49 3.37 3.13 3.07 1.1 4.6 1.66 3.08 1.11 4.63 1.6l4.7 1.39c.78.23 1.56.48 2.35.69l2.38.58a103.34 103.34 0 0 0 19.33 3.13 66.82 66.82 0 0 0 19.4-1.34 47.66 47.66 0 0 0 17.64-7.9 46.79 46.79 0 0 0 7.16-6.55 51.12 51.12 0 0 0 5.63-7.91 55 55 0 0 0 4.1-8.8 51.29 51.29 0 0 0 2.48-9.36l.17.44a23.23 23.23 0 0 0-8.19-4.33 36.68 36.68 0 0 0-9.28-1.39 76 76 0 0 0-18.79 2.05 154.83 154.83 0 0 0-18.23 5.39c-6 2.16-11.88 4.5-17.68 7.09v-.09c5.75-2.71 11.58-5.27 17.55-7.48a154.61 154.61 0 0 1 18.25-5.64 76.72 76.72 0 0 1 19-2.31 36.69 36.69 0 0 1 9.52 1.43 23.88 23.88 0 0 1 8.55 4.52l.22.18v.26a54 54 0 0 1-6.75 18.51 51.8 51.8 0 0 1-5.79 8 47.54 47.54 0 0 1-7.33 6.63 48.58 48.58 0 0 1-18 7.94 67.57 67.57 0 0 1-19.6 1.26 104.8 104.8 0 0 1-19.37-3.25l-2.39-.6c-.79-.21-1.57-.47-2.35-.7l-4.7-1.44c-1.56-.5-3.09-1.09-4.63-1.63s-3.09-1.05-4.62-1.7a9.36 9.36 0 0 1-2.13-1.3 4.26 4.26 0 0 1-1.42-2.08 4.18 4.18 0 0 1 .2-2.5 8.79 8.79 0 0 1 1.24-2.17 32.55 32.55 0 0 1 7.4-6.45 124.74 124.74 0 0 1 17.17-9.48z"/><path class="cls-10" d="M717.23 331.05v.7a24.5 24.5 0 0 1-45.31 12.94l-2.46 1.11c-2.83 1.3-38.13 17.83-21.59 24.11 86 32.64 94.11-33.26 94.11-33.26-5.98-5.16-14.86-6.5-24.75-5.6z"/><path d="M717.26 331.08a24.07 24.07 0 0 1-4.58 15.05 24.66 24.66 0 0 1-40.95-1.31l.32.1a134.34 134.34 0 0 0-17.57 9.36 46.6 46.6 0 0 0-7.8 6.07 10.79 10.79 0 0 0-2.67 4 3.25 3.25 0 0 0 0 2.22 4.27 4.27 0 0 0 1.46 1.74 17.21 17.21 0 0 0 4.45 2l4.7 1.66c1.56.58 3.17 1 4.75 1.48s3.17 1 4.79 1.37a116 116 0 0 0 19.55 3.45 69.4 69.4 0 0 0 19.73-1 49.31 49.31 0 0 0 18.06-7.67 51.48 51.48 0 0 0 7.39-6.53 52.52 52.52 0 0 0 5.88-7.93 54.26 54.26 0 0 0 6.89-18.47l.1.26a24.7 24.7 0 0 0-11.63-5.25 40.91 40.91 0 0 0-6.44-.69c-2.11-.14-4.31.01-6.43.09zm-.07-.07a57.82 57.82 0 0 1 6.55-.33 43.24 43.24 0 0 1 6.52.55 24.57 24.57 0 0 1 11.93 5.2l.12.1v.15a51.46 51.46 0 0 1-2.53 9.72 54.43 54.43 0 0 1-4.24 9.09 53.53 53.53 0 0 1-5.89 8.14 48.88 48.88 0 0 1-7.5 6.73 50.36 50.36 0 0 1-18.43 7.82 68.25 68.25 0 0 1-20 .95 116.21 116.21 0 0 1-19.72-3.59c-1.62-.38-3.2-.94-4.8-1.4s-3.21-.92-4.77-1.52l-4.71-1.68a17.17 17.17 0 0 1-4.61-2.09 4.93 4.93 0 0 1-1.69-2.05 4 4 0 0 1 0-2.67 11.21 11.21 0 0 1 2.84-4.23 47 47 0 0 1 7.95-6.13 135.48 135.48 0 0 1 17.68-9.32l.2-.08.12.18a24.3 24.3 0 0 0 40.31 1.45 25.3 25.3 0 0 0 3.58-7.09 26.85 26.85 0 0 0 1.09-7.91z"/><path class="cls-11" d="M692.75 356.25a24.5 24.5 0 0 0 24.5-24.5v-.7a84.28 84.28 0 0 0-9 1.32c-12.36 2.48-25.46 7.48-36.29 12.32a24.5 24.5 0 0 0 20.79 11.56z"/><path d="M692.75 356.2a23.14 23.14 0 0 0 9.46-2.06 25.44 25.44 0 0 0 7.8-5.62 26.07 26.07 0 0 0 5.19-8 24.53 24.53 0 0 0 1.83-9.44l.21.19a74.66 74.66 0 0 0-11.68 1.91c-3.84.93-7.62 2.09-11.36 3.34s-7.45 2.62-11.12 4.08-7.32 3-10.93 4.58l.22-.73a25.73 25.73 0 0 0 8.62 8.49 23.94 23.94 0 0 0 5.64 2.44 24.29 24.29 0 0 0 6.12.82zm0 .1a26.19 26.19 0 0 1-12-2.89 23.76 23.76 0 0 1-9.2-8.46l-.31-.49.54-.24c3.62-1.61 7.25-3.2 11-4.6s7.45-2.73 11.24-3.89 7.65-2.13 11.52-3c1.94-.41 3.88-.82 5.84-1.12s3.92-.61 5.9-.8h.2v.19a25.42 25.42 0 0 1-1.49 9.73 23.33 23.33 0 0 1-5.32 8.33 23.75 23.75 0 0 1-8.24 5.41 26.09 26.09 0 0 1-9.68 1.83z"/><path class="cls-10" d="M501.6 345.8l-2.46-1.11a24.5 24.5 0 0 1-45.31-12.94v-.7c-9.89-.9-18.74.44-24.77 5.6 0 0 8.16 65.9 94.11 33.26 16.56-6.28-18.74-22.81-21.57-24.11z"/><path class="cls-12" d="M501.58 345.85l-2.47-1.11h.07a24.64 24.64 0 0 1-40.86 1.46 25.23 25.23 0 0 1-3.63-7.17 25.89 25.89 0 0 1-1.1-8l.24.27a49 49 0 0 0-12.92.4 24.31 24.31 0 0 0-11.62 5.18l.11-.28a54 54 0 0 0 6.67 18.19 50.77 50.77 0 0 0 5.68 7.89 47.33 47.33 0 0 0 7.2 6.51 47.84 47.84 0 0 0 17.66 7.81 67.6 67.6 0 0 0 19.39 1.26 106.64 106.64 0 0 0 19.25-3.16l2.37-.57c.79-.21 1.57-.46 2.35-.69l4.69-1.38c1.56-.48 3.09-1.06 4.64-1.58s3.12-1 4.59-1.63 2.88-1.55 3.32-3-.38-3-1.31-4.3a32.39 32.39 0 0 0-7.23-6.47 121.63 121.63 0 0 0-17.09-9.63zm0-.09a127.15 127.15 0 0 1 17.2 9.45 33.07 33.07 0 0 1 7.45 6.42 9 9 0 0 1 1.27 2.19 4.24 4.24 0 0 1 .21 2.57 4.32 4.32 0 0 1-1.44 2.16 9 9 0 0 1-2.16 1.33c-1.54.67-3.08 1.16-4.62 1.74s-3.07 1.15-4.63 1.65l-4.71 1.45c-.78.23-1.56.49-2.35.71l-2.39.6c-1.59.38-3.18.83-4.78 1.17l-4.85.9-1.21.23-1.22.16-2.45.3-2.44.31-2.46.15a66.89 66.89 0 0 1-19.65-1.33 46.46 46.46 0 0 1-25.23-14.71 52.08 52.08 0 0 1-5.73-8 55 55 0 0 1-4.17-8.94 51.42 51.42 0 0 1-2.5-9.55v-.17l.13-.12a25 25 0 0 1 11.94-5.26 49.76 49.76 0 0 1 13.07-.35h.24v.24a26.25 26.25 0 0 0 1 7.83 25 25 0 0 0 3.51 7.07 24.22 24.22 0 0 0 28.39 8.63 24.62 24.62 0 0 0 12.14-9.93z"/><path class="cls-11" d="M478.33 356.25a24.5 24.5 0 0 0 20.81-11.56c-10.83-4.84-23.93-9.84-36.29-12.32a84.28 84.28 0 0 0-9-1.32v.7a24.5 24.5 0 0 0 24.48 24.5z"/><path d="M478.33 356.2a22.92 22.92 0 0 0 11.77-3.27 26.29 26.29 0 0 0 8.67-8.47l.19.62c-3.61-1.61-7.2-3.26-10.86-4.76s-7.37-2.87-11.15-4-7.61-2.16-11.47-3a96.15 96.15 0 0 0-11.67-1.78l.53-.47a25.63 25.63 0 0 0 1.66 9.38 25.35 25.35 0 0 0 12.87 13.69 23.15 23.15 0 0 0 9.46 2.06zm0 .1a26.25 26.25 0 0 1-9.62-1.78 23.95 23.95 0 0 1-13.71-13.7 24.61 24.61 0 0 1-1.67-9.79v-.52l.52.05a81.65 81.65 0 0 1 11.74 2c3.86 1 7.65 2.12 11.42 3.35s7.49 2.56 11.21 3.92 7.42 2.81 11 4.42l.45.2-.26.43a23.23 23.23 0 0 1-9.14 8.48 24.25 24.25 0 0 1-5.85 2.17 24.76 24.76 0 0 1-6.09.77z"/><path class="cls-10" d="M707.87 332.37c-2.53.51-5.09 1.12-7.65 1.81a24.8 24.8 0 0 1 .66 5.68 24.49 24.49 0 0 1-45.2 13.14c-9.25 5.65-18.13 13.17-8.16 17 86 32.64 94.11-33.26 94.11-33.26-7.81-6.74-20.35-7.06-33.76-4.37z"/><path d="M707.9 332.52l-7.64 1.81.11-.18a24.67 24.67 0 0 1 .62 4.28 17.3 17.3 0 0 1 0 2.16c0 .72 0 1.45-.15 2.16a24.12 24.12 0 0 1-2.41 8.29 25.45 25.45 0 0 1-12.35 11.85 24.8 24.8 0 0 1-8.52 2 24.13 24.13 0 0 1-8.73-1A25.29 25.29 0 0 1 655 353.4l1.16.27a64.4 64.4 0 0 0-7.13 5 24.59 24.59 0 0 0-3.06 3 7.28 7.28 0 0 0-1.8 3.38 2.87 2.87 0 0 0 1.53 2.78 15.4 15.4 0 0 0 3.8 1.66l4.16 1.44 2.09.72 2.11.62c11.2 3.38 22.84 5.71 34.45 5.25a59.48 59.48 0 0 0 16.94-3.07c.67-.25 1.36-.44 2-.73l2-.87a42.62 42.62 0 0 0 3.81-1.94 18.87 18.87 0 0 0 1.83-1.1l1.8-1.16 1.7-1.3A19.41 19.41 0 0 0 724 366a48.13 48.13 0 0 0 5.94-6.17 57.39 57.39 0 0 0 4.79-7.14 60.87 60.87 0 0 0 3.64-7.86 48.38 48.38 0 0 0 2.39-8.3l.31.79a22.19 22.19 0 0 0-7.29-4.25 34.28 34.28 0 0 0-8.45-1.79 65.37 65.37 0 0 0-17.43 1.24zm-.06-.3a84.67 84.67 0 0 1 8.7-1.38 57.77 57.77 0 0 1 8.83-.36 34.84 34.84 0 0 1 8.8 1.36 23.58 23.58 0 0 1 8.05 4.12l.37.3-.06.5A54.1 54.1 0 0 1 737.1 354a55.63 55.63 0 0 1-4.85 7.7 44.53 44.53 0 0 1-3 3.46c-.53.55-1 1.12-1.59 1.64l-1.66 1.51a45.08 45.08 0 0 1-15.79 9 60.09 60.09 0 0 1-17.84 3c-12.07.25-23.88-2.36-35.2-5.93l-2.13-.66-2.09-.75-4.19-1.52a17.34 17.34 0 0 1-4.25-2 5.88 5.88 0 0 1-1.8-1.93 4.41 4.41 0 0 1-.49-2.75 9 9 0 0 1 2.29-4.34 26.65 26.65 0 0 1 3.33-3.15 66.61 66.61 0 0 1 7.41-5.08l.71-.44.44.71a24.08 24.08 0 0 0 12.87 10.06 22.81 22.81 0 0 0 8.25 1.14A23.81 23.81 0 0 0 698 350.82a23.83 23.83 0 0 0 2.07-16.6v-.15h.14z"/><path class="cls-11" d="M676.38 364.36a24.49 24.49 0 0 0 24.5-24.5 24.8 24.8 0 0 0-.66-5.68 206.59 206.59 0 0 0-31.1 11.62 143.25 143.25 0 0 0-13.44 7.2 24.48 24.48 0 0 0 20.7 11.36z"/><path d="M676.38 364.31a23.22 23.22 0 0 0 10.62-2.62 23.83 23.83 0 0 0 4.53-3c.69-.59 1.35-1.22 2-1.84s1.24-1.33 1.77-2.07a25.94 25.94 0 0 0 4.7-9.69 23.27 23.27 0 0 0 .09-10.85l.22.13a118.92 118.92 0 0 0-11.57 3.63c-3.78 1.4-7.51 2.95-11.21 4.54s-7.41 3.23-11 5-7.17 3.68-10.6 5.77l.16-.7a26 26 0 0 0 3.78 4.71 25.4 25.4 0 0 0 4.81 3.69 22.92 22.92 0 0 0 11.69 3.23zm0 .1a25.92 25.92 0 0 1-11.94-2.86 23.84 23.84 0 0 1-5.13-3.55 24.42 24.42 0 0 1-4.06-4.78l-.27-.43.43-.27q5.21-3.18 10.67-5.84c1.82-.9 3.68-1.73 5.53-2.53s3.71-1.61 5.59-2.36c3.75-1.53 7.55-2.91 11.39-4.2 1.91-.64 3.84-1.25 5.77-1.86s3.87-1.15 5.82-1.71h.17v.17a25.56 25.56 0 0 1 .25 11.08 23.78 23.78 0 0 1-4.7 10.08 23.36 23.36 0 0 1-8.79 6.79 26.18 26.18 0 0 1-10.73 2.27z"/><path class="cls-10" d="M501.74 345.8c-4.89-2.25-10.34-4.57-16-6.7a24.5 24.5 0 0 1-48.74-3.55 24.07 24.07 0 0 1 .21-3.19 22.46 22.46 0 0 0-8 4.29s8.15 65.9 94.11 33.26c16.55-6.28-18.75-22.81-21.58-24.11z"/><path class="cls-12" d="M501.68 345.94c-5.27-2.42-10.6-4.67-16-6.7l.21-.12a25.15 25.15 0 0 1-9.47 16.32 25 25 0 0 1-27.65 1.9A25.37 25.37 0 0 1 437 342.08a16.86 16.86 0 0 1-.53-2.42 17 17 0 0 1-.3-2.46 31.59 31.59 0 0 1 .11-5l1.23 1a21.45 21.45 0 0 0-7.59 4.15l.34-.9a50.76 50.76 0 0 0 2.52 9.23 53.34 53.34 0 0 0 4.14 8.66 49.3 49.3 0 0 0 5.63 7.73 45.93 45.93 0 0 0 7.1 6.34A46.72 46.72 0 0 0 467 376a67.73 67.73 0 0 0 19.08 1.2 108.75 108.75 0 0 0 19.08-3l2.37-.55 2.34-.65 4.69-1.31c1.55-.46 3.09-1 4.64-1.48l2.32-.75c.77-.25 1.57-.49 2.26-.77 1.38-.57 2.68-1.42 3-2.58s-.26-2.63-1.14-3.87a32.16 32.16 0 0 0-7-6.51 111.09 111.09 0 0 0-16.96-9.79zm.12-.28c3 1.35 5.92 2.82 8.81 4.35s5.74 3.17 8.51 4.95a33.28 33.28 0 0 1 7.67 6.39 9.31 9.31 0 0 1 1.36 2.29 4.72 4.72 0 0 1 .28 2.9 5 5 0 0 1-1.6 2.47 10 10 0 0 1-2.28 1.46c-.81.39-1.57.65-2.34 1l-2.3.88c-1.54.58-3.06 1.22-4.62 1.74l-4.71 1.53c-.79.24-1.57.52-2.36.74l-2.4.62a99.39 99.39 0 0 1-19.58 3.36 66.88 66.88 0 0 1-19.93-1.4 49.49 49.49 0 0 1-18.24-8.31 48.84 48.84 0 0 1-7.39-6.83 52.94 52.94 0 0 1-5.79-8.19 55.63 55.63 0 0 1-4.18-9.08 51.93 51.93 0 0 1-2.5-9.72l-.08-.53.43-.36a23.54 23.54 0 0 1 8.33-4.43l1.31-.4-.08 1.43a29.44 29.44 0 0 0-.16 4.6 16 16 0 0 0 .24 2.29 14.27 14.27 0 0 0 .47 2.25 23.48 23.48 0 0 0 4 8.27 24 24 0 0 0 33.29 4.95 24.35 24.35 0 0 0 9.62-15.77v-.18l.17.06c5.44 2.01 10.79 4.26 16.05 6.67z"/><path class="cls-11" d="M461.47 360.05a24.5 24.5 0 0 0 24.24-20.95 149.52 149.52 0 0 0-22.71-6.73c-9.49-1.9-18.55-2.3-25.8 0a24.07 24.07 0 0 0-.21 3.19 24.49 24.49 0 0 0 24.48 24.49z"/><path d="M461.47 360a23.43 23.43 0 0 0 8.49-1.63 24.06 24.06 0 0 0 7.29-4.55 25.44 25.44 0 0 0 8.1-14.78l.23.39c-3.85-1.51-7.74-3-11.71-4.15q-3-.91-6-1.64c-2-.48-4-.93-6.08-1.27a75.11 75.11 0 0 0-12.32-1.16 39.37 39.37 0 0 0-12.14 1.63l.35-.41a25.65 25.65 0 0 0 .84 10.09 25.11 25.11 0 0 0 12.92 15.16 23.3 23.3 0 0 0 10.03 2.32zm0 .1a25.54 25.54 0 0 1-10.19-2.1 24.6 24.6 0 0 1-8.54-6.06 23.7 23.7 0 0 1-5.21-9.16c-.21-.86-.48-1.71-.63-2.58s-.32-1.75-.36-2.64l-.07-1.33a7.28 7.28 0 0 1 0-1.32l.2-2.66v-.31l.33-.1a38.63 38.63 0 0 1 12.45-1.49 71.5 71.5 0 0 1 12.39 1.54c4.08.82 8.1 1.89 12.1 3s7.95 2.41 11.86 3.81l.27.09v.3a23.68 23.68 0 0 1-2.72 8.4 24.1 24.1 0 0 1-5.62 6.8 24.94 24.94 0 0 1-7.65 4.3 25.76 25.76 0 0 1-8.61 1.51z"/><path class="cls-12" d="M643.52 362.13a83.86 83.86 0 0 1 7.75-10.69 100.48 100.48 0 0 1 9.14-9.55 88.49 88.49 0 0 1 22-14.77 83.52 83.52 0 0 1 12.5-4.6A72.6 72.6 0 0 1 708 320.4a74.11 74.11 0 0 1 26.22 3.45v.2a96.69 96.69 0 0 0-26-1.65c-2.15.23-4.31.39-6.44.8s-4.26.8-6.38 1.24a81.93 81.93 0 0 0-12.4 4.14 87.47 87.47 0 0 0-21.95 14.05 102.77 102.77 0 0 0-9.35 9.2 84.93 84.93 0 0 0-8 10.4zm-116.27.1a85 85 0 0 0-8-10.4 102.77 102.77 0 0 0-9.35-9.2 87.47 87.47 0 0 0-21.95-14.05 81.56 81.56 0 0 0-12.33-4.14c-2.12-.44-4.23-1-6.38-1.24s-4.29-.57-6.44-.8a96.69 96.69 0 0 0-26 1.65l-.05-.2a74.14 74.14 0 0 1 26.22-3.45 72.6 72.6 0 0 1 13.17 2.12 83.52 83.52 0 0 1 12.5 4.6 88.49 88.49 0 0 1 21.95 14.77 101.85 101.85 0 0 1 9.15 9.55 84.77 84.77 0 0 1 7.74 10.69z"/><path class="cls-12" d="M645.23 361.32s52.67-33.91 95.17-24.67c0 0 16.51 4.13 23-12.26 0 0-7 9.46-23 8 0-.02-45.18-18.57-95.17 28.93z"/><path class="cls-12" d="M645.27 361.29c-.06-.06 0 0 0-.08l.1-.06.22-.14.43-.27.85-.52 1.73-1c1.16-.68 2.33-1.35 3.5-2q3.52-2 7.11-3.8 7.2-3.67 14.64-6.8a163.85 163.85 0 0 1 30.75-9.67c10.55-2.09 21.47-2.92 32.17-1.26 1.33.21 2.68.47 4 .75a21.64 21.64 0 0 0 3.94.37 20.49 20.49 0 0 0 7.76-1.37 17 17 0 0 0 6.45-4.42 21.88 21.88 0 0 0 4.1-6.73l.69.39a20.36 20.36 0 0 1-4.87 4.22 26.12 26.12 0 0 1-5.82 2.71 31.83 31.83 0 0 1-12.68 1.28h-.14a58.64 58.64 0 0 0-12.58-2.88 80 80 0 0 0-12.95-.57 92.89 92.89 0 0 0-25.46 4.74 111.17 111.17 0 0 0-12 4.92 113.63 113.63 0 0 0-11.35 6.37 150.27 150.27 0 0 0-20.59 15.82zm-.08.07a127.22 127.22 0 0 1 20.35-16.45 115.79 115.79 0 0 1 11.34-6.54 114.13 114.13 0 0 1 12.12-5.09 97.37 97.37 0 0 1 12.66-3.42 85.37 85.37 0 0 1 13-1.49 81 81 0 0 1 13.12.57 57.47 57.47 0 0 1 12.81 3h-.13a31.12 31.12 0 0 0 12.33-1.17 25 25 0 0 0 5.63-2.59 19.37 19.37 0 0 0 4.68-4l1.71-2.1-1 2.49a22.35 22.35 0 0 1-4.28 6.94 17.76 17.76 0 0 1-6.75 4.59 21.36 21.36 0 0 1-8 1.38 22.37 22.37 0 0 1-4.07-.4 68.34 68.34 0 0 0-3.94-.76c-10.59-1.7-21.46-.93-32 1.1a164 164 0 0 0-30.77 9.43 213.41 213.41 0 0 0-28.81 14.51zm-119.59-.8s-52.6-34.15-95.15-24.91c0 0-16.51 4.13-23-12.26 0 0 7 9.46 23 8 0-.02 45.16-18.33 95.15 29.17z"/><path class="cls-12" d="M525.64 360.59A212.46 212.46 0 0 0 496.86 346a163.25 163.25 0 0 0-30.73-9.55c-10.51-2.06-21.38-2.85-32-1.15-1.33.21-2.62.47-4 .75a22.74 22.74 0 0 1-12.11-1 17.74 17.74 0 0 1-6.75-4.58 22.71 22.71 0 0 1-4.28-6.95l-1-2.49 1.71 2.1a19.56 19.56 0 0 0 4.68 4 24.84 24.84 0 0 0 5.64 2.59 31.05 31.05 0 0 0 12.32 1.17h-.13A58.18 58.18 0 0 1 443.1 328a80.93 80.93 0 0 1 13.11-.53 85.3 85.3 0 0 1 13 1.54 97.38 97.38 0 0 1 12.65 3.46 111.2 111.2 0 0 1 12.14 5.11 119.17 119.17 0 0 1 11.34 6.55 128.76 128.76 0 0 1 20.3 16.46zm-.08-.06A151.55 151.55 0 0 0 505 344.61a118 118 0 0 0-11.34-6.38 109.31 109.31 0 0 0-12-4.94 93.3 93.3 0 0 0-25.45-4.82 78.92 78.92 0 0 0-12.95.51 59 59 0 0 0-12.6 2.83h-.13a31.83 31.83 0 0 1-12.68-1.28 25.84 25.84 0 0 1-5.81-2.71 20.21 20.21 0 0 1-4.88-4.22l.69-.39a21.88 21.88 0 0 0 4.1 6.73 17.18 17.18 0 0 0 6.46 4.43 20.68 20.68 0 0 0 7.76 1.36 21.84 21.84 0 0 0 3.95-.38c1.3-.27 2.65-.53 4-.74 10.71-1.66 21.64-.81 32.18 1.31a163.17 163.17 0 0 1 30.7 9.79q7.44 3.14 14.61 6.84c2.4 1.23 4.76 2.51 7.11 3.83 1.17.66 2.33 1.33 3.49 2l1.73 1 .86.53.42.27.22.14.1.07s.08.07.02.14z"/><path class="cls-13" d="M508.13 579.89a153.32 153.32 0 0 0 18.51 9l2.37 1 2.41.89 4.84 1.74c3.27 1 6.51 2.11 9.84 2.93a185.89 185.89 0 0 0 20.06 4.28 149 149 0 0 0 20.38 1.84 149 149 0 0 0 20.38-1.84 187.8 187.8 0 0 0 20.08-4.3c3.33-.83 6.57-1.92 9.85-2.93l4.83-1.75 2.41-.88 2.37-1a151.78 151.78 0 0 0 18.51-9 140.73 140.73 0 0 1-37.55 17 160 160 0 0 1-20.2 4.6 151.37 151.37 0 0 1-20.66 2 153 153 0 0 1-20.66-2 160.43 160.43 0 0 1-20.2-4.6 140.87 140.87 0 0 1-37.57-16.98zm147.24-20.95c-10.69-4.71-19.47-14.45-32.26-16.05-16-2-37.36 8-37.36 8h-.65s-21.36-10-37.36-8-37.49 25-54.25 28a148 148 0 0 0 19.53.25c12.76-.42 25.05-5.57 37.85-5.5 11.09.07 22.23 5.18 34.23 4.82h.65c11.51.41 23.14-4.75 34.23-4.82 12.81-.07 25.09 5.08 37.85 5.5 0 0 15.62 2.28 24.7-14.15-1.15 2.09-7.81 3.37-9.81 3.82a26.69 26.69 0 0 1-17.35-1.87z"/><path class="cls-13" d="M655.37 558.94c-5.73-2.53-10.75-6.33-16.07-9.58a54.33 54.33 0 0 0-8.3-4.29 30.72 30.72 0 0 0-9-2.18 43.45 43.45 0 0 0-9.33.25 73.4 73.4 0 0 0-9.17 1.75 108.66 108.66 0 0 0-17.63 6.17h-.73a109.36 109.36 0 0 0-11.68-4.4 90.19 90.19 0 0 0-12.11-2.95 48.61 48.61 0 0 0-12.39-.62 33 33 0 0 0-11.72 3.79 108.34 108.34 0 0 0-10.71 6.38l-10.39 7c-3.48 2.31-7 4.57-10.7 6.54a42 42 0 0 1-11.75 4.55l-.05-.87c3.45.17 6.91.41 10.35.43s6.91-.13 10.35-.3c6.86-.4 13.6-2 20.38-3.4s13.77-2.48 20.74-1.67 13.6 2.85 20.41 3.91c1.7.28 3.41.48 5.12.6s3.42.1 5.17.11a53.68 53.68 0 0 0 10.27-.86c6.8-1.15 13.49-3.14 20.44-3.72s13.89.7 20.65 2.13 13.52 3.05 20.44 3.31a22.7 22.7 0 0 0 7.43-.52 23.85 23.85 0 0 0 7-2.75 14.57 14.57 0 0 0 1.58-1 13.93 13.93 0 0 0 1.5-1.12l1.44-1.22 1.3-1.35a27.68 27.68 0 0 0 2.39-2.9c.73-1 1.34-2.11 2-3.17l.12.07a6.18 6.18 0 0 1-3 2 31.28 31.28 0 0 1-3.41 1.06 53.27 53.27 0 0 1-7 1.36 25.63 25.63 0 0 1-7.1-.32 29.81 29.81 0 0 1-6.84-2.22zm0 0a30.49 30.49 0 0 0 6.78 2.12 25.52 25.52 0 0 0 7.09.27 52.06 52.06 0 0 0 7-1.38 28.87 28.87 0 0 0 3.38-1.08 6.07 6.07 0 0 0 2.88-1.92l.12.07c-.67 1.06-1.28 2.17-2 3.2a29.1 29.1 0 0 1-2.39 2.93l-1.3 1.36-1.44 1.23a13 13 0 0 1-1.51 1.14 14.88 14.88 0 0 1-1.59 1 24.29 24.29 0 0 1-7 2.81 23.29 23.29 0 0 1-7.54.56c-7-.23-13.75-1.83-20.51-3.22s-13.65-2.63-20.53-2-13.54 2.62-20.37 3.82a54 54 0 0 1-10.39.92c-1.71 0-3.47 0-5.2-.08s-3.47-.32-5.19-.58c-6.88-1-13.55-3.06-20.38-3.81s-13.73.36-20.47 1.76-13.53 3.12-20.52 3.48c-3.48.15-6.92.26-10.41.25s-6.94-.3-10.39-.48l-3.69-.2 3.64-.67a41.18 41.18 0 0 0 11.52-4.4c3.66-1.94 7.19-4.17 10.66-6.46s6.93-4.64 10.43-6.91a106.36 106.36 0 0 1 10.81-6.37 33.51 33.51 0 0 1 11.95-3.8 49.54 49.54 0 0 1 12.52.7 88.93 88.93 0 0 1 12.16 3 109 109 0 0 1 11.71 4.47h-.08.65-.08a110.06 110.06 0 0 1 17.72-6.1 71.94 71.94 0 0 1 9.22-1.71 43.08 43.08 0 0 1 9.36-.2 30.91 30.91 0 0 1 9.08 2.23 54.13 54.13 0 0 1 8.3 4.34c5.28 3.33 10.28 7.15 16 9.71zm-147.24 20.95a153.32 153.32 0 0 0 18.51 9l2.37 1 2.41.89 4.84 1.74c3.27 1 6.51 2.11 9.84 2.93a185.89 185.89 0 0 0 20.06 4.28 149 149 0 0 0 20.38 1.84 149 149 0 0 0 20.38-1.84 187.8 187.8 0 0 0 20.08-4.3c3.33-.83 6.57-1.92 9.85-2.93l4.83-1.75 2.41-.88 2.37-1a151.78 151.78 0 0 0 18.51-9 140.73 140.73 0 0 1-37.55 17 160 160 0 0 1-20.2 4.6 151.37 151.37 0 0 1-20.66 2 153 153 0 0 1-20.66-2 160.43 160.43 0 0 1-20.2-4.6 140.87 140.87 0 0 1-37.57-16.98z"/><path class="cls-12" d="M622.42 323.45a132 132 0 0 0-6.37 28.22 189.71 189.71 0 0 0-1.42 28.88c.08 2.41.27 4.81.4 7.21l.24 3.61.41 3.59.77 7.17c.35 2.38.68 4.77 1 7.15l.45 3.59c.17 1.19.42 2.37.62 3.56.39 2.38.82 4.75 1.18 7.14.1.6.18 1.2.3 1.79l.37 1.77.73 3.56c.45 2.38.94 4.75 1.34 7.16l-.29.08c-1.59-4.58-3.25-9.18-4.51-13.89-.6-2.36-1.15-4.74-1.72-7.11-.28-1.19-.57-2.38-.81-3.57l-.62-3.61c-.39-2.41-.78-4.82-1.13-7.24s-.42-4.87-.63-7.3l-.26-3.65-.09-3.66c0-2.44-.15-4.88-.14-7.32a191.65 191.65 0 0 1 2.33-29.12 131.88 131.88 0 0 1 7.59-28.13zm-87.82-9.63a163.23 163.23 0 0 1 10.3 21.91A172 172 0 0 1 552 359c1.77 7.91 3.23 16 3.25 24.16a82.08 82.08 0 0 1-3.16 24.12l-.29-.06a168.55 168.55 0 0 0 .45-24c-.21-4-.49-7.94-.92-11.9s-.95-7.93-1.68-11.86a170.74 170.74 0 0 0-6.13-23.22 162.7 162.7 0 0 0-9.18-22.24z"/></g></g></svg>