<svg xmlns="http://www.w3.org/2000/svg" viewBox="0 0 189.56 155.9"><defs><style>.cls-1{fill:#2c2c2c}</style></defs><g id="Layer_2" data-name="Layer 2"><g id="Draw_Layer" data-name="Draw Layer"><path class="cls-1" d="M39 .05a13.88 13.88 0 0 0-1.69.29 10.45 10.45 0 0 0-1.47.58c-.35.15-.68.31-1 .48-1 .49-2 1-3 1.43l.73-.31-1.44.61.17-.13a38.87 38.87 0 0 1-8.21 2.49 20.48 20.48 0 0 1-4.63 0h.28a60.72 60.72 0 0 1-5.32-1 .61.61 0 0 0-.32 1.17C16.54 7 20 8.4 23.67 8.84a29.84 29.84 0 0 0 5 .2c.63 0 1.27 0 1.9-.11a45.56 45.56 0 0 0 4.52-.66C36.5 8 37.8 7.33 39.19 7a9.33 9.33 0 0 1 1.18 0 13.83 13.83 0 0 1 2.17.64A15.25 15.25 0 0 1 44.82 9 16.4 16.4 0 0 1 47 11.16a30.37 30.37 0 0 1 3.09 5.54 45.42 45.42 0 0 1 1.41 4.52l.5 2.12A25.61 25.61 0 0 0 53.31 27a14.09 14.09 0 0 0 2 3.31 12.77 12.77 0 0 0 2.57 2.29 20.61 20.61 0 0 0 3.79 2c1.51.66 3.09 1.13 4.62 1.72a7.28 7.28 0 0 1 .72.4l.09.09v.05a4.31 4.31 0 0 1 .16.59 11.51 11.51 0 0 1 0 1.44 13.83 13.83 0 0 1-.57 2A18 18 0 0 1 65 43.81a22.24 22.24 0 0 1-3 3 17.4 17.4 0 0 1-2.84 1.63 22.42 22.42 0 0 1-4.49 1.22 22.62 22.62 0 0 1-4.43 0 21.93 21.93 0 0 1-3.24-.78c-.64-.29-1.27-.59-1.91-.91a25 25 0 0 0-2.49-1.08 4.08 4.08 0 0 0-.77-.17 6 6 0 0 0-1.83-.11 6.41 6.41 0 0 0-1.38.22 7.13 7.13 0 0 0-1.6.7q-.56.38-1.08.81A7 7 0 0 0 34 51.49a4.48 4.48 0 0 0-.14.73 14.83 14.83 0 0 0-.15 1.78 13 13 0 0 0 .29 2.46 16.65 16.65 0 0 0 .55 2.32 25.47 25.47 0 0 1 .62 2.72 21.08 21.08 0 0 1 0 4.35 12.46 12.46 0 0 1-.43 1.78c-.12.22-.24.43-.38.64a5.66 5.66 0 0 1-.43.42l-.39.23a10.83 10.83 0 0 1-1.12.29 22.3 22.3 0 0 1-4.9 0L25.77 69a33.29 33.29 0 0 1-3.27-.68 26.27 26.27 0 0 1-2.87-1c-1.62-.71-3.19-1.51-4.75-2.35a34.79 34.79 0 0 1-4-2.51A14.36 14.36 0 0 1 9 60.69a8.07 8.07 0 0 1-.59-1 14.52 14.52 0 0 1-.61-2.44 43.91 43.91 0 0 1-.1-6.07c0-1.47.22-2.93.38-4.39.33-3.13.58-6.27.89-9.4a17.88 17.88 0 0 1 .43-2c.27-.95.56-1.91.86-2.86.74-2.31 1.54-4.62 2.46-6.88a26.9 26.9 0 0 1 2.65-4.82c.48-.58 1-1.15 1.48-1.71.33-.38.69-.74 1-1.14s.62-.78.95-1.15a2.52 2.52 0 0 0 .39-3 2.47 2.47 0 0 0-2.79-1.14c-.8.3-1.62.52-2.41.87s-1.4.63-2.08 1a8.16 8.16 0 0 0-.95.68c-.47.34-.91.7-1.35 1.06a6.36 6.36 0 0 0-.8.84c-.46.55-.88 1.13-1.29 1.71a24.51 24.51 0 0 0-2.41 4.8c-.37.89-.71 1.8-1 2.7-.85 2.38-1.62 4.76-2.3 7.19a13.33 13.33 0 0 0-.33 1.67c-.13 1-.26 2-.35 3S1 40.35.87 41.47C.67 44 .42 46.5.18 49 .06 50.23.05 51.45 0 52.67a37.75 37.75 0 0 0 .42 6.55 14.76 14.76 0 0 0 1.74 5A12.81 12.81 0 0 0 4 66.66a20 20 0 0 0 2.64 2.22 35.61 35.61 0 0 0 3.43 2.26C11 71.7 12 72.2 13 72.68a49.11 49.11 0 0 0 6.68 2.85 39.38 39.38 0 0 0 7.57 1.35 27.29 27.29 0 0 0 3.84.16 26.4 26.4 0 0 0 3.07-.32 11.5 11.5 0 0 0 3.06-1 5.19 5.19 0 0 0 .87-.53 13.13 13.13 0 0 0 1.51-1.29 12.34 12.34 0 0 0 1.22-1.56 6 6 0 0 0 .7-1.32 15.24 15.24 0 0 0 .65-1.7 8.4 8.4 0 0 0 .29-1.41 26.68 26.68 0 0 0 .34-3.78 24.74 24.74 0 0 0-.8-6.52c-.24-1-.53-1.89-.71-2.85a1.62 1.62 0 0 1 0-.22l1.45.71a23.16 23.16 0 0 0 3.94 1.5 21.61 21.61 0 0 0 4.24.64 21.33 21.33 0 0 0 3.91-.16 26 26 0 0 0 4.63-.92 27.92 27.92 0 0 0 4.13-1.68 19.19 19.19 0 0 0 3.37-2.28 21.4 21.4 0 0 0 2.9-2.89 20 20 0 0 0 4.33-7.87 17.36 17.36 0 0 0 .4-2.5 9.22 9.22 0 0 0 0-2.1 9.91 9.91 0 0 0-.48-2.35 7 7 0 0 0-1-2 9.19 9.19 0 0 0-.78-1 7.07 7.07 0 0 0-1.24-1 9.56 9.56 0 0 0-1.68-.95c-.51-.24-1-.45-1.56-.67a30.09 30.09 0 0 1-5.55-2.95 7.5 7.5 0 0 1-.85-.84 12 12 0 0 1-1-1.78c-.38-1-.67-2-.95-3.1s-.63-2.28-1-3.41a27.37 27.37 0 0 0-1.5-3.8C56.43 12 55.84 11 55.21 9.92a13.24 13.24 0 0 0-.85-1.26C53.67 7.75 53 6.83 52.23 6a21 21 0 0 0-3.93-3.29A18.08 18.08 0 0 0 43.76.59a11 11 0 0 0-1.87-.41 14 14 0 0 0-2-.18c-.3 0-.59 0-.9.05zm1.12 54.12zm.29 0h-.1.1zm76.79-17.1c-.7.5-1.41 1-2.09 1.49s-1.33 1-2 1.58c-.47.41-.91.81-1.34 1.26a24.24 24.24 0 0 0-1.77 2.15 22.59 22.59 0 0 0-1.94 3.06c-.3.56-.55 1.13-.8 1.7a29.45 29.45 0 0 0-1.55 4.2 19.77 19.77 0 0 0-.64 5.36 28.64 28.64 0 0 0 .27 3.08 41.15 41.15 0 0 0 .77 4.55c.29 1.23.6 2.46.93 3.68.48 1.78 1 3.54 1.31 5.36a10.59 10.59 0 0 1 0 1.49 10.22 10.22 0 0 1-.43 1.43 18.15 18.15 0 0 1-1.26 2.18c-.29.33-.58.64-.9.94-.19.12-.37.23-.56.33a9.13 9.13 0 0 1-1 .26 35.22 35.22 0 0 1-6.81.06 19.61 19.61 0 0 1-2.39-.57l-1.1-.38c-.72-.24-1.42-.5-2.13-.76a13.21 13.21 0 0 0-2.12-.52 15.79 15.79 0 0 0-2.16-.21 14.55 14.55 0 0 0-2.19.21 13.07 13.07 0 0 0-3.16 1.12c-.36.15-.71.33-1.06.5-1.3.61-2.58 1.29-3.87 1.92s-2.71 1.28-4.09 1.9c-.62.25-1.24.48-1.88.69a23.5 23.5 0 0 1-3.09.73c-.51.09-1 .17-1.55.24a25.48 25.48 0 0 1-4.78.15 12.93 12.93 0 0 1-1.26-.33c-.16-.09-.32-.17-.47-.27a4.11 4.11 0 0 1-.3-.29 10 10 0 0 1-.57-1 12.1 12.1 0 0 1-.46-1.59 10.76 10.76 0 0 1 0-1.27 13.68 13.68 0 0 1 .68-2.26c1.12-2.51 2.43-4.92 3.78-7.31 1.24-2.18 2.58-4.3 3.82-6.48 1.33-2.35 2.63-4.71 3.83-7.13.58-1.16 1.15-2.33 1.71-3.5s1-2.18 1.58-3.24 1.31-2.43 2-3.65c.75-1.4 1.56-2.74 2.38-4.1.23-.39-.34-.85-.63-.49a.22.22 0 0 0 0 .08c-.57.95-1.1 1.95-1.73 2.86-.4.56-.8 1.13-1.19 1.7l-2.33 3.34-2.69 3.25c-.82 1-1.72 1.92-2.58 2.87-1.66 1.84-3.41 3.58-5 5.46-1.04 1.1-1.92 2.1-2.79 3.24-1 1.26-1.93 2.55-2.86 3.85-.72 1-1.38 2.07-2.07 3.11a30.59 30.59 0 0 0-3.27 6.26 9.38 9.38 0 0 0-.4 1.73 13 13 0 0 0-.14 2.71 14.36 14.36 0 0 0 1.36 5 10 10 0 0 0 2.4 3.2 11.63 11.63 0 0 0 4.91 2.46 17.51 17.51 0 0 0 2.5.36c.75.07 1.52.07 2.28.07a23.46 23.46 0 0 0 3-.23 43.07 43.07 0 0 0 5.87-1 41.75 41.75 0 0 0 5.67-2.24c.88-.38 1.73-.81 2.6-1.22 1.59-.77 3.14-1.63 4.75-2.36a9.93 9.93 0 0 1 1.06-.32h.54a36.18 36.18 0 0 1 3.88 1.32 20.93 20.93 0 0 0 3.57 1 25.15 25.15 0 0 0 4.33.37 31.53 31.53 0 0 0 3.77-.22 23.55 23.55 0 0 0 4.1-.68 11.7 11.7 0 0 0 1.74-.7 12.7 12.7 0 0 0 1.13-.65 12.36 12.36 0 0 0 2.4-2.11 18 18 0 0 0 2.87-4.43 20.12 20.12 0 0 0 1.08-2.83 9.31 9.31 0 0 0 .22-1.15c.09-.66.17-1.29.21-1.95a17.53 17.53 0 0 0-.31-3.39c-.11-.84-.29-1.68-.47-2.51s-.36-1.51-.54-2.26c-.25-1.07-.5-2.12-.73-3.19-.27-1.27-.51-2.53-.74-3.8a23.12 23.12 0 0 1-.2-4.48 20.36 20.36 0 0 1 1-3.43l.34-.78c.23-.53.51-1 .78-1.53.49-1 1.11-1.84 1.69-2.74.26-.41.5-.83.74-1.24a12.87 12.87 0 0 0 .72-1.5 19.22 19.22 0 0 0 .84-2.18l.27-1c.15-.54.19-1.13.3-1.68a2.51 2.51 0 0 0-.62-2.37 2.63 2.63 0 0 0-1.81-.73 1.94 1.94 0 0 0-1.15.34z"/><path class="cls-1" d="M152.27 62.3a11.9 11.9 0 0 0-2.91-5.16 9.6 9.6 0 0 0-2-1.56A7.7 7.7 0 0 0 146 55a6.11 6.11 0 0 0-1-.27 13.35 13.35 0 0 0-2.26-.19 16.19 16.19 0 0 0-3.23.34 28.31 28.31 0 0 0-5.54 1.75 20.49 20.49 0 0 0-2.8 1.37 10.33 10.33 0 0 0-2 1.67q0-1.06.15-2.1a36.87 36.87 0 0 1 .67-3.66l.75-2.87c.28-1.06.61-2.1.94-3.14a.36.36 0 0 0-.38-.48.42.42 0 0 0-.4.27c-.27.67-.54 1.34-.8 2-.66 1.47-1.3 3-2 4.42a47.45 47.45 0 0 0-3.32 8 35.79 35.79 0 0 0-1 5.64c-.09.88-.12 1.78-.19 2.67 0 .71-.14 1.42-.22 2.14-.37 2.43-.8 4.85-1.4 7.24a62.13 62.13 0 0 1-2.28 7.6 31.69 31.69 0 0 1-2.51 4.48c-.36.55-.76 1.09-1.15 1.62a19.33 19.33 0 0 1-2.32 2.38 12.55 12.55 0 0 1-1.62 1c-1 .36-2 .67-3 1.06-1.33.53-2.68 1-4 1.63-2.09 1-4.15 2-6.2 3.09s-3.84 2-5.82 2.9C92 106 91 106.5 89.89 107a12.69 12.69 0 0 0-3.56 2.51 10.06 10.06 0 0 0-1.33 1.74 11.39 11.39 0 0 0-.94 2.18 2.17 2.17 0 0 0 .57 2.16 2.27 2.27 0 0 0 1 .57 2.42 2.42 0 0 0 1.71-.23l1-.45h-.07l.94-.42a14 14 0 0 1 2.44-.68 17.42 17.42 0 0 0 1.76-.28 11.86 11.86 0 0 0 1.18-.27c1-.32 2-.66 2.91-1.07.68-.3 1.38-.56 2-.89l2.16-1.07c1.38-.69 2.73-1.43 4.09-2.13s2.58-1.28 3.88-1.9c.85-.35 1.71-.7 2.58-1s1.55-.57 2.31-.89a14.65 14.65 0 0 0 2.76-1.41 18.58 18.58 0 0 0 2.65-2.19 24.58 24.58 0 0 0 2.8-3.47c.52-.73 1-1.46 1.52-2.21a27.58 27.58 0 0 0 1.53-2.76c0 .35-.08.71-.11 1.07a3.84 3.84 0 0 0 .06.76 10.58 10.58 0 0 0 .32 1.8 7.21 7.21 0 0 0 .3.77c.25.59.49 1.16.77 1.72.51 1 1.11 1.93 1.61 2.94a18.32 18.32 0 0 1 .68 2.93 20.58 20.58 0 0 1 0 2.72 20.82 20.82 0 0 1-1.17 3.69 43.12 43.12 0 0 1-4.09 7.53c-1 1.23-2.18 2.33-3.31 3.46s-2.11 2.18-3.14 3.29c-1.81 1.93-3.51 3.95-5.2 6a124.38 124.38 0 0 0-5.45 7.08 29.84 29.84 0 0 0-2.07 3.37 22.13 22.13 0 0 0-1 2.28c-.11.31-.22.61-.32.92 0 .15-.07.3-.11.45-.08.55-.15 1.11-.23 1.67s.14 1.28.23 1.92a7.19 7.19 0 0 0 .7 1.76 8.21 8.21 0 0 0 1.11 1.54 9 9 0 0 0 1.71 1.44 10.52 10.52 0 0 0 4.34 1.64 20 20 0 0 0 2.68.31c.92 0 1.85-.07 2.78-.09a3 3 0 0 0 2.86-2.17 3 3 0 0 0-.31-2.28 3.11 3.11 0 0 0-1.72-1.36l-2.06-.78a18.41 18.41 0 0 1-2.82-1.47l-.19-.17.12-.36a36 36 0 0 1 3-5q1.74-2.48 3.55-4.9c1.45-1.83 2.94-3.64 4.54-5.36 1-1 2-2.1 3-3.13s2.33-2.33 3.39-3.6a36.22 36.22 0 0 0 5.45-10c.42-1.08.84-2.16 1.17-3.27a15.8 15.8 0 0 0 .68-5.87 24.88 24.88 0 0 0-1.25-6.23 56 56 0 0 0-2.54-5.08c-.06-.18-.11-.35-.16-.53v-.06a11.32 11.32 0 0 1 .94-1.46c-.22.27-.43.55-.64.82l.72-.93c.77-1 1.55-2 2.41-2.84a27.77 27.77 0 0 1 2.63-2.35c1.12-.84 2.25-1.66 3.35-2.51a20 20 0 0 0 2.79-2.49 27.06 27.06 0 0 0 3-3.92 29.2 29.2 0 0 0 2.15-4.43 25.81 25.81 0 0 0 1.28-3.71 19.45 19.45 0 0 0 .48-2.83 15.63 15.63 0 0 0-.42-5.24zm-7.73 4a22.61 22.61 0 0 1-1.22 4.09c-.36.8-.74 1.6-1.14 2.39a19.53 19.53 0 0 1-1.57 2.48c-.52.62-1.05 1.22-1.62 1.81a25.51 25.51 0 0 1-2.19 2c-1.61 1.35-3.22 2.7-4.75 4.16a26.4 26.4 0 0 0-2 2.31c-.86 1-1.7 2.11-2.49 3.21.1-.26.19-.51.28-.78a26.29 26.29 0 0 0 .8-3.29c.26-1.28.51-2.57.7-3.87a57 57 0 0 0 .7-8.15c0-1.13 0-2.25-.12-3.38v-.37a22.6 22.6 0 0 1 1.49-2.26 13.7 13.7 0 0 1 1.74-1.83 14.11 14.11 0 0 1 2-1.12 35.06 35.06 0 0 1 6.47-1.72 12.64 12.64 0 0 1 1.74 0l.22.06.33.34a8.85 8.85 0 0 1 .5.84 8.12 8.12 0 0 1 .25 1 14.43 14.43 0 0 1-.12 2.08zm44.61 13.39a10.54 10.54 0 0 0-.41-1.43 14.93 14.93 0 0 0-1.07-2.34 11.3 11.3 0 0 0-1.2-1.64 12.13 12.13 0 0 0-.92-1 17.78 17.78 0 0 0-1.55-1.2c-.25-.18-.5-.36-.76-.52a17.18 17.18 0 0 0-2-1 11.6 11.6 0 0 0-2.48-.87 8 8 0 0 0-1.7-.18 6.55 6.55 0 0 0-2.32.4 7.46 7.46 0 0 0-1.58.77 14.56 14.56 0 0 0-1.26 1 18 18 0 0 0-2.26 2.32c-.95 1.1-1.93 2.17-2.92 3.23L165.1 79c-.11.12-.23.23-.35.34q.7-1.87 1.35-3.78c.37-.85.73-1.7 1.09-2.56l.66-1.54c.34-.79.75-1.55 1.12-2.33a.43.43 0 0 0-.38-.61.33.33 0 0 0-.31.21c-.47 1-.94 2-1.47 2.91l-1.57 2.79a25.4 25.4 0 0 1-2.31 3.17c-1.28 1.41-2.58 2.8-3.93 4.15-.76.76-1.52 1.53-2.26 2.31s-1.37 1.5-2 2.27-1.49 1.85-2.2 2.8c-.46.61-.91 1.23-1.34 1.86a11.76 11.76 0 0 0-.87 1.6 12.24 12.24 0 0 0-.59 1.52 9.63 9.63 0 0 0-.29 1.66 9.5 9.5 0 0 0 .63 4.51 13.05 13.05 0 0 0 1 2.06l.53.88a34.75 34.75 0 0 1 2 3.68 16.68 16.68 0 0 1 .83 3 26.14 26.14 0 0 1-1.78 12.94 40 40 0 0 1-2.7 5.1c-.28.46-.54.93-.82 1.38s-.6.9-.86 1.38-.54.9-.82 1.34-.5.9-.76 1.34a2.18 2.18 0 0 0 0 2.22 2.23 2.23 0 0 0 2.48 1l1.12-.29a11.65 11.65 0 0 0 1.8-.72 7.49 7.49 0 0 0 1.42-.77c.58-.42 1.14-.87 1.69-1.33a14.5 14.5 0 0 0 2.21-2.54 18.94 18.94 0 0 0 1.68-2.72 31.12 31.12 0 0 0 2.46-6.25 33.38 33.38 0 0 0 1.05-6.82 27.86 27.86 0 0 0-.13-4.66 5.45 5.45 0 0 0 1.39.35 8.48 8.48 0 0 0 2 .16c.67-.07 1.35-.18 2-.28a7.78 7.78 0 0 0 1.17-.32c.47-.14.95-.28 1.41-.46a26 26 0 0 0 5.29-2.66 21.34 21.34 0 0 0 3.44-3c.47-.49.89-1 1.32-1.57.61-.77 1.22-1.55 1.8-2.35.82-1.13 1.64-2.26 2.39-3.43s1.42-2.34 2.07-3.54a27.17 27.17 0 0 0 2-4.92 20.38 20.38 0 0 0 .49-2.19 19.77 19.77 0 0 0 .3-3.16 17.49 17.49 0 0 0-.4-3.44zM180.5 84a16.48 16.48 0 0 1-.75 2.48 61.22 61.22 0 0 1-6.06 9.4A23.78 23.78 0 0 1 170.8 99a24.72 24.72 0 0 1-4.05 2.19l-2.26 1a11.24 11.24 0 0 0-1.65.77l-.78.43q-.44.31-.87.66a1.66 1.66 0 0 0-.21.16c-.26-.58-.52-1.15-.81-1.71a29.83 29.83 0 0 0-1.7-2.8c-.47-.74-1-1.46-1.36-2.23-.08-.25-.15-.49-.21-.74s0-.55 0-.84a9.58 9.58 0 0 1 .37-1.23c.76-1.67 1.67-3.27 2.56-4.88s1.69-3.07 2.46-4.65q.65-1.32 1.23-2.67l2-1.31c1.4-.89 2.89-1.61 4.35-2.38l1.65-.69a15.58 15.58 0 0 1 3.34-1 10.1 10.1 0 0 1 1.23 0q.33.08.66.18a16.17 16.17 0 0 1 1.92 1.14c.31.28.6.56.88.86s.35.57.51.87a14.64 14.64 0 0 1 .44 1.7 15.43 15.43 0 0 1 0 2.17z"/></g></g></svg>