<svg id="Layer_1" data-name="Layer 1" xmlns="http://www.w3.org/2000/svg" viewBox="0 0 500 500"><defs><style>.cls-2{fill:#fc2128}</style></defs><path fill="#1c365d" d="M0 0h500v500H0z"/><path class="cls-2" d="M150 246.81a18 18 0 01-15.85-26.73c2.13-3.78 4.28-7.49 6.42-11.29a3.13 3.13 0 01.75-1 2.94 2.94 0 011.09-.61 3.06 3.06 0 011.24-.13 3.27 3.27 0 011.18.38 3.12 3.12 0 011 .81 3.17 3.17 0 01.53 1.13 3 3 0 01-.42 2.38c-2.11 3.78-4.28 7.53-6.37 11.31a11.73 11.73 0 00-1.24 9.18 12.08 12.08 0 002.14 4.23 12.74 12.74 0 003.62 3.12 12 12 0 004.51 1.41 11.78 11.78 0 004.68-.46 12.11 12.11 0 004.18-2.25 11.84 11.84 0 003-3.7L168.8 220l10.36-18.42a3.14 3.14 0 014.16-1.5 3.31 3.31 0 01.64.41 2.86 2.86 0 01.95 1.56 3.24 3.24 0 01.09 1.35 3 3 0 01-.48 1.27l-14.68 25.92-4 7a18 18 0 01-6.65 6.81 18.32 18.32 0 01-9.19 2.41z"/><path class="cls-2" d="M150.58 236.32a7.8 7.8 0 01-7.21-11.48q6.57-11.73 13.24-23.42l5.76-10.16a2.89 2.89 0 011.26-1.28 3.13 3.13 0 011.78-.3 3 3 0 011.56.63 2.87 2.87 0 01.95 1.42 2.73 2.73 0 01.14 1.36 3.24 3.24 0 01-.43 1.28q-8.69 15.28-17.36 30.61c-.49.86-1 1.72-1.47 2.59a1.56 1.56 0 00.21 2.2 1.15 1.15 0 00.35.22 1.56 1.56 0 002.15-.5 1.77 1.77 0 00.15-.31q5.59-9.9 11.22-19.81 5.25-9.27 10.45-18.52a3.13 3.13 0 014.12-1.48 3.39 3.39 0 011 .77 3.16 3.16 0 01.62 1.12 3.26 3.26 0 01.1 1.28 2.89 2.89 0 01-.46 1.2c-1.56 2.92-3.29 5.81-4.91 8.7q-8.31 14.79-16.69 29.66a7.73 7.73 0 01-6.53 4.22z"/><path class="cls-2" d="M150.58 256.58a28.55 28.55 0 01-13.83-3.58 2.86 2.86 0 01-1-.75 2.83 2.83 0 01-.61-1.08A2.73 2.73 0 01135 250a3.07 3.07 0 014.64-2.33h.07a22.06 22.06 0 0026-3.39 20.81 20.81 0 004-5.23q6.68-11.79 13.34-23.54a3.1 3.1 0 014-1.56 2.93 2.93 0 011.09.74 3.09 3.09 0 01.68 1.14 3.27 3.27 0 01.12 1.32 2.9 2.9 0 01-.45 1.24c-1.95 3.49-3.94 7-5.9 10.45-2.47 4.37-4.89 8.71-7.39 13A27.91 27.91 0 01152 256.5c-.61.06-1.2.08-1.42.08z"/><path d="M116.34 296.14a11.28 11.28 0 01-17.72.61 18.56 18.56 0 01-3-11.08 20.86 20.86 0 01.84-6 14.19 14.19 0 012.47-4.67 10.86 10.86 0 013.86-3.13 12.36 12.36 0 019.37-.32 9.45 9.45 0 014 2.92v-13.22h7.63v38.62h-7.4zm-.11-10.71a15.72 15.72 0 00-.45-4.32 6 6 0 00-1.56-2.66 4.56 4.56 0 00-2.16-1.26 8.58 8.58 0 00-2.31-.31 5.92 5.92 0 00-2.35.48 5.55 5.55 0 00-2 1.56 7.64 7.64 0 00-1.33 2.75 14.19 14.19 0 00-.48 4 16.85 16.85 0 00.45 4.24 8 8 0 001.23 2.69 4.62 4.62 0 001.91 1.56 6.07 6.07 0 002.34.47 5.83 5.83 0 006.06-4.2 12.25 12.25 0 00.62-4zm10.82-24.18h7.81v6.81h-7.81zm.11 10.38h7.62v28.24h-7.62zm19.53 30.04a4.82 4.82 0 00.63 1.72 2.87 2.87 0 001.1 1 4.36 4.36 0 001.64.51 19.89 19.89 0 002.31.14 5.94 5.94 0 003.3-.79 4.63 4.63 0 001.76-2.08 9.1 9.1 0 00.72-3c0-1.1.14-2.27.14-3.45v-.86a9.18 9.18 0 01-3.62 3.12 11.4 11.4 0 01-5 1.05 10.66 10.66 0 01-8.95-3.83 16.39 16.39 0 01-3-10.33 18.1 18.1 0 01.84-5.62 13 13 0 012.42-4.48 10.85 10.85 0 013.89-2.92 12.25 12.25 0 015.16-1.07 11.59 11.59 0 014.47.86 9.47 9.47 0 013.93 3.13v-3.13h7.4v24.23a24.8 24.8 0 01-.73 6.36 12.15 12.15 0 01-2.34 4.68 10 10 0 01-4.19 3 17.45 17.45 0 01-6.24 1 25.47 25.47 0 01-5.84-.55 10.51 10.51 0 01-4-1.73 7.51 7.51 0 01-2.46-2.79 12.88 12.88 0 01-1.11-4.08zm11.69-16.89a12.19 12.19 0 00-.56-4.11 6 6 0 00-1.48-2.4 4.56 4.56 0 00-2.08-1.1 9.68 9.68 0 00-2.28-.28 6.64 6.64 0 00-2.37.44 5.19 5.19 0 00-2 1.4 7 7 0 00-1.32 2.49 11.36 11.36 0 00-.5 3.62 9.32 9.32 0 001.67 6.35 5.63 5.63 0 001.93 1.41 5.55 5.55 0 002.34.45 7.88 7.88 0 002.64-.41 4.79 4.79 0 002.09-1.29 5.9 5.9 0 001.36-2.33 10.57 10.57 0 00.56-3.48zm11.11-23.53h7.8v6.81h-7.8zm.1 10.38h7.61v28.24h-7.61zm14.96 5.9h-4.46v-5.9h4.46v-7.52h7.62v7.52h6.53v5.9h-6.53v13a3.83 3.83 0 00.92 3 3.55 3.55 0 002.39.78 13.53 13.53 0 001.56 0 10.23 10.23 0 001.56-.3l1.09 5.57a17.52 17.52 0 01-3.12.67 21.18 21.18 0 01-2.87.19 9.51 9.51 0 01-6.93-2.22q-2.25-2.2-2.25-7.46zm35.63 18.77a14.92 14.92 0 01-3.78 3.12 11.05 11.05 0 01-5.42 1.19 13.06 13.06 0 01-3.62-.49 8.27 8.27 0 01-3-1.56 7.59 7.59 0 01-2-2.62 8.83 8.83 0 01-.75-3.83 8 8 0 011.3-4.68 8.92 8.92 0 013.43-2.87 17.24 17.24 0 014.69-1.45 40.21 40.21 0 015.37-.55l3.64-.17v-1.53a4 4 0 00-1.44-3.56 6.05 6.05 0 00-3.4-1c-3 0-4.69 1.14-5.17 3.42l-7-.65a8.86 8.86 0 013.91-6.42 15.89 15.89 0 018.51-2 17.13 17.13 0 015.55.78 9 9 0 013.68 2.25 8.66 8.66 0 012 3.54 16.47 16.47 0 01.62 4.69v17.9h-7.13zm-.16-9l-3.39.16a20.68 20.68 0 00-3.84.48 7 7 0 00-2.26 1 2.81 2.81 0 00-1.06 1.32 4.79 4.79 0 00-.27 1.67 2.69 2.69 0 00.24 1.22 2.54 2.54 0 00.75 1 4.09 4.09 0 002.74.81 7.74 7.74 0 004.78-1.36 5.59 5.59 0 002.34-4.87zm10.49-26.05h7.62v38.62h-7.62zm19.8 0h7.62v14a10.49 10.49 0 018.6-4.45 9.33 9.33 0 017.18 2.51q2.32 2.5 2.33 7.93v18.74h-7.62v-17.73a5.54 5.54 0 00-1.14-4.06 4.09 4.09 0 00-3.12-1.1 6.61 6.61 0 00-2.53.43 6.92 6.92 0 00-2 1.25 6.64 6.64 0 00-1.29 1.81 5.18 5.18 0 00-.51 2.29v17h-7.62zm47.32 35.05a14.75 14.75 0 01-3.78 3.12 10.79 10.79 0 01-5.4 1.19 12.7 12.7 0 01-3.62-.49 8.28 8.28 0 01-3-1.56 7.42 7.42 0 01-2-2.62 8.42 8.42 0 01-.76-3.83 7.85 7.85 0 011.31-4.68 8.82 8.82 0 013.42-2.87 17.25 17.25 0 014.76-1.45 40.09 40.09 0 015.35-.55l3.64-.17v-1.53a4 4 0 00-1.44-3.56 5.89 5.89 0 00-3.38-1c-3 0-4.69 1.14-5.17 3.42l-7-.65a8.94 8.94 0 013.92-6.42 16 16 0 018.49-2 17.31 17.31 0 015.54.78 9 9 0 013.67 2.25 8.57 8.57 0 012 3.55 15.77 15.77 0 01.62 4.68v17.91h-7.18zm-.16-9l-3.37.16a20.68 20.68 0 00-3.84.48 6.86 6.86 0 00-2.26 1 2.89 2.89 0 00-1.07 1.32 5 5 0 00-.26 1.67 2.44 2.44 0 00.22 1.22 2.75 2.75 0 00.75 1 4.1 4.1 0 002.73.81 7.76 7.76 0 004.78-1.36 5.58 5.58 0 001.68-1.9 5.88 5.88 0 00.66-3zm10.79-15.67h7.4v3.89a10.39 10.39 0 018.81-4.76 9.33 9.33 0 017.18 2.51q2.35 2.53 2.35 7.93v18.74h-7.6v-17.69a5.49 5.49 0 00-1.16-4.06 4.21 4.21 0 00-3-1.1 6.61 6.61 0 00-2.53.43 6.92 6.92 0 00-2 1.25 6.4 6.4 0 00-1.28 1.81 5.05 5.05 0 00-.52 2.29v17h-7.62zm48.99 24.51a11.32 11.32 0 01-17.72.59 18.4 18.4 0 01-2.93-11.08 20.53 20.53 0 01.84-6 14.39 14.39 0 012.42-4.68 10.87 10.87 0 013.84-3.12 11.84 11.84 0 015.17-1.09 12.1 12.1 0 014.21.76 9.62 9.62 0 013.95 2.92v-13.19h7.62v38.62h-7.4zm-.15-10.71a17 17 0 00-.47-4.32 6 6 0 00-1.56-2.66 4.76 4.76 0 00-2.14-1.26 8.72 8.72 0 00-2.33-.31 6 6 0 00-2.36.48 5.38 5.38 0 00-1.95 1.56 7.66 7.66 0 00-1.34 2.75 14.19 14.19 0 00-.48 4 16.85 16.85 0 00.45 4.24 7.86 7.86 0 001.28 2.73 4.68 4.68 0 001.9 1.57 6.3 6.3 0 002.35.46 6.39 6.39 0 004.46-1.56 6.61 6.61 0 001.56-2.62 13.08 13.08 0 00.52-4zm17.5 5.47a4 4 0 002 3.24 9.1 9.1 0 003.92.75 8.14 8.14 0 003.89-.67 2.28 2.28 0 00.9-.92 2.32 2.32 0 00.27-1.26 2.65 2.65 0 00-.74-1.89 4.65 4.65 0 00-2.79-1.14l-3.92-.66a16.72 16.72 0 01-7.7-2.81 7.13 7.13 0 01-2.54-6 7.73 7.73 0 01.9-3.68 8.3 8.3 0 012.53-2.74 12.85 12.85 0 013.89-1.65 18.36 18.36 0 014.95-.62 19.92 19.92 0 015.65.67 11 11 0 013.76 1.79 7.39 7.39 0 012.21 2.72 13.4 13.4 0 011.06 3.34l-6.79.87a5 5 0 00-1.72-2.87 6.67 6.67 0 00-3.95-.92 10.76 10.76 0 00-2.53.25 5.14 5.14 0 00-1.56.62 2.16 2.16 0 00-.81.86 2 2 0 00-.25.92 2.43 2.43 0 00.17 1.1 2.37 2.37 0 00.67.87 8.41 8.41 0 003.31 1.06l3.59.6a25.85 25.85 0 014.9 1.23 9.32 9.32 0 013.13 1.87 5.87 5.87 0 011.65 2.63 12.21 12.21 0 01.45 3.51 7.81 7.81 0 01-3.12 6.4c-2 1.56-5.17 2.42-9.37 2.4a23.49 23.49 0 01-4.87-.45 12 12 0 01-4.13-1.56 9.34 9.34 0 01-3-3 10 10 0 01-1.33-4.68zm29.75-30.34a6.12 6.12 0 11-6.27-6h.17a6 6 0 016.1 5.88zm-10.72 0a4.67 4.67 0 004.6 4.76h.08a4.76 4.76 0 000-9.52 4.69 4.69 0 00-4.68 4.68v.08zm3.62 3.12h-1.37v-5.94a11.67 11.67 0 012.29-.19 3.6 3.6 0 012.06.44 1.68 1.68 0 01.6 1.31 1.58 1.58 0 01-1.25 1.39 1.73 1.73 0 011.09 1.45 4.72 4.72 0 00.44 1.56h-1.49a5 5 0 01-.47-1.45c-.1-.66-.48-.95-1.24-.95h-.66zm0-3.38h.66c.76 0 1.37-.25 1.37-.88s-.39-.9-1.26-.9a3.3 3.3 0 00-.77 0z" fill="#fff"/></svg>