<svg xmlns="http://www.w3.org/2000/svg" viewBox="0 0 406.98 397.66"><defs><style>.cls-1{fill:#231f20}</style></defs><g id="Layer_2" data-name="Layer 2"><g id="Layer_1-2" data-name="Layer 1"><path class="cls-1" d="M396.91 363.09l-.86-181.45-.3-181.45 1.26 1.26-198.41.33-99.21.17-24.8.04-24.8-.04-49.6-.08L1.87.19l-.66 397.34-1.02-1.02 49.89.11 49.89.24 99.79.48-.19.19.09-18.22h.2v18.32h-.1l-199.57.03H.06v-.13L0 .19V0h.19l396.82.04h.15v.15l-.05 362.9h-.2zm.42 21.73a12.21 12.21 0 0 1 9.65-8.95 12.21 12.21 0 1 0-10.78 21.27 12.05 12.05 0 0 0 5.23.19 12.21 12.21 0 0 1-4.1-12.51z"/><path class="cls-1" d="M211.68 59.16c-1-2.15-2.1-4.22-3.25-6.24V58c1.06.35 2.14.72 3.25 1.16zm-13.05-19.47a68.14 68.14 0 0 0-13.06 19.47c-.8 1.7-1.56 3.43-2.28 5.21-11 26.88-19.56 79.21-19.56 79.21-8.31 27.46-15.94 61.91-39.21 81-12.74 10.46-29.13 15.49-42 26.44a138.54 138.54 0 0 0-27.19 31.5c-2.33 3.67-4.83 7.42-7.16 11.28-1.56 2.58-3 5.21-4.34 7.9a49.6 49.6 0 0 0-4.3 12.59c-1.66 9.06 1.19 8 9.62 8.7 7.52.62 15.06 1.05 22.59 1.38 5.78.25 11.55.43 17.33.59l3.3.1c21.57.56 43.16.85 64.67 2.6-.19 3.52-.29 6.83-.29 9.82 0 3.85 8.81 5.86 17.63 5.91a48.72 48.72 0 0 0 9.81-.87 68.34 68.34 0 0 0 7.25 1c.44 2.91 2.5 14.52 7.36 14.52 2.55 0 4.32-3.18 5.5-6.63v-241.3a34.87 34.87 0 0 1-5.68.48 37.46 37.46 0 0 1-14.92-3.2 131.61 131.61 0 0 1 7.3-25.21 37.14 37.14 0 0 1 7.67-12.34 32.89 32.89 0 0 1 5.68 8.08V46.53a57.58 57.58 0 0 0-5.72-6.84zm84.1 191.88v94.06l7.87-.19V236c-2.6-1.44-5.29-2.89-7.87-4.43zm31.94 19.48c-1.2-1-2.44-1.93-3.69-2.85-.35-.26-.71-.49-1.07-.74v77.48h1.07c2.15-.06 4.3-.14 6.45-.22v-71.16c-.91-.84-1.82-1.7-2.76-2.51zM301.51 242c-2-1.14-4-2.22-6-3.32v86.6l6-.15 3.3-.08h.83v-80.48c-1.36-.87-2.73-1.72-4.13-2.57zm44.43 46.92v34.25L348 323l2.17-.15v-27c-1.33-2.32-2.77-4.64-4.23-6.93zm11.72 25.4a48.06 48.06 0 0 0-3.83-11.51v19.76a9.73 9.73 0 0 0 2.16-.45 4.21 4.21 0 0 0 .64-.31 2.7 2.7 0 0 0 .93-.94 4.92 4.92 0 0 0 .55-2.44 22.56 22.56 0 0 0-.45-4.11zm-29.04-49.48c-2.21-2.51-4.53-4.92-6.91-7.26v67l3.73-.14 3.18-.17 1.91-.09v-57c-.64-.82-1.26-1.59-1.91-2.34zm8.17 10.25c-.43-.6-.9-1.18-1.34-1.77v50.56l1.34-.07c1.41-.08 2.82-.19 4.23-.29v-42.21c-1.37-2.11-2.76-4.19-4.23-6.22z"/><path class="cls-1" d="M214 64.37c-.73-1.78-1.49-3.51-2.29-5.21a40.72 40.72 0 0 0-3.25-1.13v29.85a139.83 139.83 0 0 1 5.11 19.51 33 33 0 0 1-5.11 1.81v231.91a21.05 21.05 0 0 0 4.66 1.44 43.54 43.54 0 0 0 4.9.68V75c-1.29-3.6-2.62-7.16-4.02-10.63zm18.58 88.12a476.77 476.77 0 0 0-7.5-60v251a25.23 25.23 0 0 0 7.82-1.26V179.05zm40.94 72.12a57.9 57.9 0 0 1-4.49-5.12v106.64q4.17-.19 8.33-.34v-97.7c-1.31-1.09-2.61-2.24-3.84-3.48zm-28.58-37.39c-.77-1.81-1.95-3.63-2.66-5.46s-1.48-3.91-2.18-5.88v151.57c2.55-.18 5.54-.34 8.09-.49V194.35c-1.14-2.35-2.19-4.72-3.25-7.13zM255 204.31v122.36c2.66-.1 5.32-.21 8-.29V212.64c-1.73-1.59-3.42-3.2-5-4.9a44.88 44.88 0 0 1-3-3.43z"/></g></g></svg>