<svg xmlns="http://www.w3.org/2000/svg" viewBox="0 0 84.65 90.36"><defs><linearGradient id="a" x1="11.9" y1="30.44" x2="72.76" y2="91.3" gradientUnits="userSpaceOnUse"><stop offset="0" stop-color="#35b0ab"/><stop offset="1" stop-color="#644199"/></linearGradient></defs><g data-name="Layer 2"><path d="M83.64 78.1a7.67 7.67 0 0 0-.11-.81c-.53-3.22-2.53-6.07-4.09-8.77a38 38 0 0 0-6-7.74q-.5-.49-1-1c-3.33-3-7.57-4.41-10.87-7.3-6-5.28-8-14.79-10.16-22.37 0 0-.42-2.21-.75-4.55a81.62 81.62 0 0 0-4.3-17.32q-.29-.73-.6-1.44a18.84 18.84 0 0 0-3.38-5.37A19.06 19.06 0 0 0 39 6.84c-.21.47-.4 1-.59 1.44a80.43 80.43 0 0 0-4.3 17.32c-.35 2.4-.77 4.55-.77 4.55-2.15 7.58-4.13 17.09-10.16 22.37-3.3 2.89-7.54 4.28-10.88 7.3-.34.31-.68.63-1 1a37.68 37.68 0 0 0-6 7.74 56.42 56.42 0 0 0-3 5.29 13.84 13.84 0 0 0-1.11 3.48c0 .16-.05.3-.07.44S1 78 1 78.1a2.8 2.8 0 0 0 0 .59 1.57 1.57 0 0 0 0 .23c.13.4.43.55.92.63h.26c.37 0 .82 0 1.37.1 1 .09 1.95.16 2.92.22s2 .12 2.93.16c1.5.07 3 .12 4.49.17h.86c5.59.16 11.18.24 16.75.72 0 1-.07 1.89-.07 2.71 0 1.06 2.28 1.62 4.56 1.63a11.39 11.39 0 0 0 2.55-.24 16.14 16.14 0 0 0 1.87.27c.12.8.65 4 1.91 4s1.8-3.24 1.91-4a17.46 17.46 0 0 0 1.79-.26 11.39 11.39 0 0 0 2.55.24c2.28 0 4.56-.57 4.56-1.63 0-.82 0-1.74-.07-2.71 5.56-.48 11.14-.56 16.72-.72h.86c1.5 0 3-.1 4.49-.17 2-.09 3.9-.21 5.85-.38.68-.06 1.22-.07 1.63-.14a1.58 1.58 0 0 0 .43-.11l.17-.08a.75.75 0 0 0 .24-.26 1.1 1.1 0 0 0 .12-.41 2.13 2.13 0 0 0 0-.27c.08-.06.08-.17.07-.29z" fill="none" stroke-miterlimit="10" stroke-width="2" stroke="url(#a)" data-name="Layer 1"/></g></svg>