<svg data-name="Layer 1" xmlns="http://www.w3.org/2000/svg" viewBox="0 0 130 130"><path d="M1.34 56.11c1.59-2.56 1.47-5.59 2.28-8.37A64.55 64.55 0 0 1 69.17 1.43c27 1.3 52.6 23.22 58.21 50.63 6.45 31.49-12 64.15-42.22 74.9-1.11.39-2.73.15-3.32 1.69h-2c-1.5-1.65-1.3-3.65-1.31-5.65 0-5-.08-9.94 0-14.9s-.14-9.57-2.6-14c-1.54-2.75-.73-4.77 2.49-5.57a55.81 55.81 0 0 0 5.7-1.71c14.67-5.42 21.45-22 14.25-35.83a24.46 24.46 0 0 1-3.1-13.67c.55-7.69-2.08-9.37-8.63-5.54-5.22 3.05-10.28 3.91-16.1 2.32a25.38 25.38 0 0 0-13.28.37 14.74 14.74 0 0 1-12.34-1.88 21.75 21.75 0 0 0-3.52-1.83c-4.6-1.84-7-.62-6.73 4.24.41 6.33-1.42 11.71-3.8 17.48-6.26 15.15 1.32 30.11 17 35 1.26.4 2.54.73 3.82 1.06 2.94.74 3.54 2.46 2.54 5.23-3.39 9.35-9.71 10.58-16.16 3-2.05-2.39-3.87-5-6.85-6.34-.9-.41-1.9-.9-2.76-.06a1.82 1.82 0 0 0 0 2.69c5.68 5.18 9 13.57 18.59 13.44 1.7 0 3.65.62 3.79 2.55.49 6.52 1.81 13.1-.79 19.5h-2C23.19 124.17 2.53 96.12 1.84 76.33a1.91 1.91 0 0 0-.5-1.33z" fill="#010101"/></svg>