<svg id="Layer_1" data-name="Layer 1" xmlns="http://www.w3.org/2000/svg" viewBox="0 0 130 130"><defs><style>.cls-1{fill:#010101}.cls-2{fill:#1e1d1d}.cls-3{fill:#232222}.cls-4{fill:#7c7979}.cls-5{fill:#747171}.cls-6{fill:#848181}.cls-7{fill:#676464}</style></defs><path class="cls-1" d="M128.18 54.78A64.19 64.19 0 0 0 78.1 2.44c-5.73-1.24-11.51-1.14-17.32-1a51.81 51.81 0 0 0-15.43 2.79A64.2 64.2 0 0 0 4.41 44.81a52.39 52.39 0 0 0-3 15.85c-.09 4.88-.31 9.76.51 14.59a64.24 64.24 0 0 0 50.34 52.47 73 73 0 0 0 7.78.93H61c.06-.25.25-.21.43-.18.19 0 .37 0 .46.18h1.33a6 6 0 0 1 3.55 0h1.56c.09-.21.26-.22.45-.19.19 0 .38-.07.44.19h.44a.55.55 0 0 1 .41-.11 45.75 45.75 0 0 0 14.66-2.65 64.23 64.23 0 0 0 43-47.86 67.29 67.29 0 0 0 1-8v-.89c-.35-.22-.26-.44 0-.66v-1.33a1.68 1.68 0 0 1 0-1.77v-.67a1.7 1.7 0 0 1 0-1.78V61.6c-.24-.15-.3-.29 0-.44v-.89c-.33-1.82-.23-3.67-.55-5.49zm-25.72 25.31q-17.61 11.72-35.19 23.46a3.63 3.63 0 0 1-4.42 0Q45.27 91.82 27.66 80.1a3.88 3.88 0 0 1-1.89-3.51V53.51A3.89 3.89 0 0 1 27.65 50q17.61-11.7 35.19-23.46a3.63 3.63 0 0 1 4.42 0q17.64 11.77 35.29 23.51a3.71 3.71 0 0 1 1.79 3.34v23.19a3.84 3.84 0 0 1-1.88 3.51z"/><path class="cls-2" d="M63.17 128.65h3.55a11.13 11.13 0 0 0-3.55 0z"/><path class="cls-2" d="M63.17 128.65a11.13 11.13 0 0 1 3.55 0 6 6 0 0 0-3.55 0z"/><path class="cls-3" d="M128.66 64.71v-1.78a3 3 0 0 0 0 1.78z"/><path class="cls-3" d="M128.66 64.71a3 3 0 0 1 0-1.78 1.7 1.7 0 0 0 0 1.78zm0 2.44v-1.77a3 3 0 0 0 0 1.77z"/><path class="cls-3" d="M128.66 67.15a3 3 0 0 1 0-1.77 1.68 1.68 0 0 0 0 1.77z"/><path class="cls-4" d="M128.66 69.15v-.66a.51.51 0 0 0 0 .66z"/><path class="cls-4" d="M128.66 69.15a.51.51 0 0 1 0-.66c-.26.22-.35.44 0 .66z"/><path class="cls-5" d="M128.66 61.6v-.44a.3.3 0 0 0 0 .44z"/><path class="cls-5" d="M128.66 61.6a.3.3 0 0 1 0-.44c-.3.15-.24.29 0 .44z"/><path class="cls-6" d="M61 128.65h.44v-.11c-.21 0-.37-.02-.44.11z"/><path class="cls-6" d="M61.38 128.47c-.18 0-.37-.07-.43.18.12-.13.28-.11.44-.11a.2.2 0 0 1-.01-.07z"/><path class="cls-7" d="M61.47 128.58s0 .07-.08.07h.45a.47.47 0 0 0-.37-.11s.01.03 0 .04z"/><path class="cls-7" d="M61.38 128.47s.08 0 .09.07a.47.47 0 0 1 .37.11c-.09-.21-.27-.22-.46-.18zm.09.11h-.08v.11s.06-.06.08-.11zm-.08-.04h.08l-.09-.07a.2.2 0 0 0 0 .07zm7.33 0c-.16 0-.32 0-.44.11h.44v-.11z"/><path class="cls-7" d="M68.73 128.54v-.08c-.19 0-.36 0-.45.19.12-.14.28-.11.44-.11z"/><path class="cls-6" d="M68.79 128.59a.1.1 0 0 1-.07.06h.45a.47.47 0 0 0-.37-.11.07.07 0 0 1-.01.05z"/><path class="cls-6" d="M68.73 128.46a.17.17 0 0 1 .07.08.47.47 0 0 1 .37.11c-.06-.26-.25-.21-.44-.19zm.06.13a.07.07 0 0 0 0-.05h-.07v.11a.1.1 0 0 0 .07-.06z"/><path class="cls-6" d="M68.8 128.54a.17.17 0 0 0-.07-.08v.08z"/><path class="cls-1" d="M47.69 60.56c4.42-3 8.83-5.92 13.26-8.84a1.52 1.52 0 0 0 .77-1.43V36.98a3.36 3.36 0 0 0-.13-1.51l-26.4 17.6c3.88 2.59 7.68 5.12 11.47 7.68.47.33.71.02 1.03-.19zm21.22-9.03l13.7 9.17a.67.67 0 0 0 .88 0c3.79-2.55 7.6-5.09 11.47-7.67L68.58 35.48c-.09.17-.15.23-.15.29v14.87a1 1 0 0 0 .48.89zm-8.07 26.76c-4.12-2.72-8.22-5.48-12.33-8.22-1.49-1-1.49-1-3 0L35.16 77 61.7 94.71V79.89a1.67 1.67 0 0 0-.86-1.6zm21.53-8.72c-3.68 2.43-7.27 5.07-11.08 7.31a5.23 5.23 0 0 0-2.94 5.54c.25 4 .07 8 .07 12.29L95 77c-3.86-2.58-7.61-5.07-11.32-7.6-.6-.4-.9-.11-1.31.17zM65.53 57.34a.67.67 0 0 0-.88-.05C60.83 59.86 57 62.42 53.06 65c3.95 2.64 7.81 5.22 11.66 7.81.31.2.52.09.78-.09l11.56-7.71z"/><path d="M32.56 59.41v11.27L41 65zm65.01 11.28v-11.3l-8.45 5.66z" fill="#020202"/></svg>