<svg id="Layer_1" data-name="Layer 1" xmlns="http://www.w3.org/2000/svg" viewBox="0 0 130 130"><defs><style>.cls-1{fill:#010101}</style></defs><path class="cls-1" d="M128.66 61.16v-.89c-.26-1.82-.16-3.67-.48-5.49a68.62 68.62 0 0 0-2.52-10v40.6a67.62 67.62 0 0 0 2-7.33 67.29 67.29 0 0 0 1-8v-.89c-.35-.22-.26-.44 0-.66v-1.35a1.68 1.68 0 0 1 0-1.77v-.67a1.7 1.7 0 0 1 0-1.78V61.6c-.24-.15-.3-.29 0-.44zM78.1 2.44c-5.73-1.24-11.51-1.14-17.32-1a51.81 51.81 0 0 0-15.43 2.79l-.35.11h40.1a66.9 66.9 0 0 0-7-1.9zM4.56 44.39c0 .14-.1.28-.15.42a52.39 52.39 0 0 0-3 15.85c-.09 4.88-.31 9.76.51 14.59a69.79 69.79 0 0 0 2.67 10.52c.09-13.77.02-27.58-.03-41.38zm39.29 80.97a67.26 67.26 0 0 0 8.43 2.36 73 73 0 0 0 7.78.93H61c.06-.25.25-.21.43-.18.19 0 .37 0 .46.18h1.33a6 6 0 0 1 3.55 0h1.56c.09-.21.26-.22.45-.19.19 0 .38-.07.44.19h.44a.55.55 0 0 1 .41-.11 45.75 45.75 0 0 0 14.66-2.65c.48-.15.94-.32 1.41-.49q-21.14-.24-42.29-.04z"/><path class="cls-1" d="M106.14 16.1a62.66 62.66 0 0 0-21-11.76H45A64.18 64.18 0 0 0 4.56 44.39c.05 13.8.12 27.59 0 41.38A62.73 62.73 0 0 0 23.94 114a62.36 62.36 0 0 0 19.91 11.41q21.12-.21 42.24 0a64.07 64.07 0 0 0 39.57-40V44.76a62.86 62.86 0 0 0-19.52-28.66zm-62 84.15c-10.91.25-10.91.34-10.91-10.6 0-11.65.07-23.29 0-34.93 0-2.81.33-4.12 3.72-4.1 10.32.06 10.32-.12 10.32 10.1v15.1c0 7.08-.1 14.17 0 21.24.02 2.46-.68 3.13-3.17 3.19zM47.18 37c0 6.44 0 6.44-8.18 6.44-5.82 0-5.82 0-5.82-8 0-5.74 0-5.28 9-5.88 7.11-.56 4.58 4.12 5 7.44zM97 97.71c0 .91.19 2.21-1.06 2.27-3.93.16-7.87.28-11.8.07-1.89-.1-1.07-2-1.08-3.07-.07-8 0-16.09-.06-24.13 0-3.85-1.75-6.8-5.65-7.74-3.46-.85-6.19.64-7.92 3.72-1 1.7-.8 3.66-.81 5.53 0 7.26-.11 14.51 0 21.76.06 2.83-.35 4.16-3.76 4.15-10.27 0-10.27.14-10.27-10.23V75.38c0-7.25.08-14.51 0-21.76 0-2.2.49-3.11 2.85-2.95 3 .2 6.78-1.11 8.82.29 4.44 3 8 .14 12-.16 8.37-.64 17 6.35 18.2 15.26 1.33 10.5.25 21.1.54 31.65z"/></svg>