<svg xmlns="http://www.w3.org/2000/svg" viewBox="0 0 218.15 218.15"><g data-name="Layer 2"><path d="M.5.5v217.15h217.15V.5zm100.85 24l.33-9.39 7.24 6 9-2.58-3.44 8.73 5.24 7.79-9.37-.58-5.79 7.4-2.34-9.09-8.82-3.22zM153 179.46l-51.75-10.86L63 205.08l-5.67-52.59-46.58-25.15L59 105.7l9.54-52 35.49 39.22 52.44-7-26.33 45.88zm26.08-114.22l-7.88 23.84-14.13-20.75L132 68.2l15.37-19.85-7.64-23.92 23.63 8.49 20.39-14.66-.77 25.1 20.24 14.85z" fill="#231f20" stroke="#231f20" stroke-miterlimit="10" data-name="Layer 1"/></g></svg>