<svg xmlns="http://www.w3.org/2000/svg" xmlns:xlink="http://www.w3.org/1999/xlink" viewBox="0 0 174.52 166.66"><defs><style>.cls-1,.cls-2{fill:none;stroke-miterlimit:10;stroke-width:5px;}.cls-1{stroke:url(#linear-gradient);}.cls-2{stroke:url(#linear-gradient-2);}</style><linearGradient id="linear-gradient" x1="0.01" y1="44.73" x2="174.51" y2="44.73" gradientUnits="userSpaceOnUse"><stop offset="0" stop-color="#35b0ab"/><stop offset="1" stop-color="#644199"/></linearGradient><linearGradient id="linear-gradient-2" x1="0" y1="121.87" x2="174.52" y2="121.87" xlink:href="#linear-gradient"/></defs><title>arrow</title><g id="Layer_2" data-name="Layer 2"><g id="Layer_1-2" data-name="Layer 1"><path class="cls-1" d="M19,2.52c5.1,0,10.19,0,15.29,0a2,2,0,0,1,1.58.67q25.2,25,50.41,50c.93.92.93.92,1.89,0l50.39-50a2.08,2.08,0,0,1,1.6-.65q15.28,0,30.58,0a1.34,1.34,0,0,1,.2,0c.36,0,.82-.12,1,.3s-.29.56-.51.77L155.31,19.65Q121.74,53,88.18,86.39c-.74.74-1.11.76-1.85,0Q45.13,45.41,3.9,4.46A11.63,11.63,0,0,1,3,3.6c-.19-.24-.68-.36-.48-.77s.62-.32,1-.32H19Z"/><path class="cls-2" d="M19.12,79.6c5,0,9.92,0,14.88,0a2.79,2.79,0,0,1,2.2.93Q61.06,105.25,86,130c1.28,1.27,1.28,1.27,2.53,0q25-24.82,50-49.66a2.3,2.3,0,0,1,1.77-.73q15.24,0,30.47,0a3.13,3.13,0,0,1,.81,0c.43.1.68.34.28.78-.16.17-.33.33-.5.5L88.26,163.35a3.49,3.49,0,0,0-.43.43c-.41.56-.72.46-1.17,0q-4.29-4.31-8.62-8.57L3.24,81c-.17-.17-.33-.34-.5-.5-.49-.48-.14-.71.28-.84a2.73,2.73,0,0,1,.81,0Z"/></g></g></svg>