<svg xmlns="http://www.w3.org/2000/svg" viewBox="0 0 107.24 116.7"><defs><style>.cls-1{fill:#2c2c2c;}</style></defs><title>arrow</title><g id="Layer_2" data-name="Layer 2"><g id="Draw_Layer" data-name="Draw Layer"><path class="cls-1" d="M104.73,35.06a3.37,3.37,0,0,0-.9-.12,3.46,3.46,0,0,0-1.72.46,3.75,3.75,0,0,0-1.56,2q-.52,1.32-1,2.61c-.36.88-.77,1.75-1.06,2.64-.2.63-.41,1.25-.6,1.88-.57,1.77-1.15,3.54-1.72,5.32-.37,1.18-.65,2.39-1,3.59-.53,1.94-1.05,3.88-1.58,5.82-2.27,8.41-4.31,16.9-7.62,25a94,94,0,0,1-4.58,9.21c-.91,1.58-1.77,3.19-2.72,4.75l-1,1.6c.3-.75.57-1.51.8-2.27a13.29,13.29,0,0,0,.32-2.19c.08-.74.14-1.47.19-2.2a28,28,0,0,0-.36-5.48c-.2-1.5-.42-3-.74-4.49s-.66-2.81-1-4.21c-.8-3-1.79-5.94-2.88-8.84s-2.43-5.86-3.82-8.69a71.34,71.34,0,0,0-4.75-8.11A128,128,0,0,0,53.3,38.19c-1.55-1.71-3.25-3.3-4.88-4.94l-4.91-4.92c-.41-.41-.86-.79-1.29-1.19L38.77,24c-1.42-1.31-2.81-2.66-4.28-3.92l-6.7-5.77c-1.8-1.54-3.67-3-5.52-4.49-1-.84-2.06-1.71-3.15-2.47L15,4.47A24.47,24.47,0,0,0,12.37,3l-1.9-1A39.75,39.75,0,0,0,5.85.2,3.36,3.36,0,0,0,4.67,0a4.84,4.84,0,0,0-3.3,1.39A4.59,4.59,0,0,0,.65,7a50.45,50.45,0,0,0,3.57,4.79c.75.85,1.47,1.79,2.29,2.58s1.77,1.59,2.65,2.39c.65.59,1.29,1.21,2,1.77q5.34,4.35,10.72,8.7c3.58,2.89,7.08,5.88,10.58,8.87s6.54,6,9.77,9A124.25,124.25,0,0,1,54.81,58.93a96,96,0,0,1,7.45,11.45A144.73,144.73,0,0,1,68.6,83.47a72,72,0,0,1,4.6,14.06,41.65,41.65,0,0,0-4.77-2.84c-1.67-.83-3.37-1.61-5.08-2.34C59.42,90.67,55.5,89,51.52,87.41c-3.06-1.21-6.12-2.36-9.29-3.3a51.62,51.62,0,0,0-8.16-1.69,24.5,24.5,0,0,0-8.06.17,1.56,1.56,0,0,0,0,3,52.38,52.38,0,0,1,5.38,1.24,52.64,52.64,0,0,1,5,1.83,160.82,160.82,0,0,1,17,9c3.72,2.16,7.37,4.41,10.9,6.88.37.29.73.58,1.08.89.86.77,1.7,1.55,2.52,2.37a43.61,43.61,0,0,1,3.29,3.76c.43.58.85,1.16,1.27,1.75a6.61,6.61,0,0,0,5.69,3.36A6.78,6.78,0,0,0,84,112.94c.92-1.71,2-3.34,3-5A125.23,125.23,0,0,0,95.8,92.32a87.77,87.77,0,0,0,3.44-8.89c1-3,1.67-6.08,2.4-9.14.14-.64.25-1.3.37-2l.87-4.56c.34-1.76.72-3.53,1-5.3l1.32-8c.29-1.78.54-3.56.79-5.34l.54-3.85c.32-2.3.48-4.62.69-6.93A3.39,3.39,0,0,0,104.73,35.06Z"/></g></g></svg>