<svg id="Layer_1" data-name="Layer 1" xmlns="http://www.w3.org/2000/svg" viewBox="0 0 1440 1000"><defs><style>.cls-1{stroke:#000000;stroke-miterlimit:10;}</style></defs><title>logo-cutout</title><path class="cls-1" d="M.27,0V1000H1439.73V0ZM725.71,358.16v20.91A32.5,32.5,0,0,0,720,371a37.3,37.3,0,0,0-7.67,12.34,131.61,131.61,0,0,0-7.25,25.21,37.46,37.46,0,0,0,14.92,3.2,34.77,34.77,0,0,0,5.68-.48V652.54c-1.18,3.45-3,6.63-5.49,6.63-4.87,0-6.93-11.61-7.37-14.52a68.34,68.34,0,0,1-7.25-1,48.66,48.66,0,0,1-9.81.87c-8.81,0-17.63-2.06-17.63-5.91,0-3,.1-6.3.29-9.82-21.51-1.75-43.09-2-64.67-2.6l-3.3-.1c-5.78-.16-11.55-.34-17.32-.59-7.54-.33-15.08-.76-22.6-1.38-8.43-.69-11.27.36-9.62-8.7a49.6,49.6,0,0,1,4.3-12.59c1.3-2.69,2.78-5.32,4.34-7.9,2.33-3.86,4.84-7.61,7.16-11.28a138.75,138.75,0,0,1,27.19-31.5c12.86-11,29.25-16,42-26.44,23.27-19.12,30.9-53.57,39.21-81,0,0,8.51-52.33,19.56-79.21.73-1.77,1.48-3.51,2.28-5.21A68.14,68.14,0,0,1,720,340.83a56.63,56.63,0,0,1,5.68,6.84ZM739.4,644.37a43.73,43.73,0,0,1-4.91-.68,21.12,21.12,0,0,1-4.65-1.44V410.35a33.62,33.62,0,0,0,5.1-1.82,139.81,139.81,0,0,0-5.1-19.51V354.07c1.14,2,2.24,4.08,3.25,6.23q1.18,2.55,2.28,5.21c1.43,3.47,2.76,7,4,10.65Zm14.9-1.07a25.53,25.53,0,0,1-7.82,1.25V393.6a476.77,476.77,0,0,1,7.5,60l.32,26.56Zm15.29-15.2c-2.55.15-5.54.31-8.09.49V477h0q1.05,3,2.18,5.88c.71,1.84,1.89,3.66,2.66,5.46,1,2.41,2.11,4.79,3.25,7.13Zm14.74-.58c-2.66.08-5.32.19-8,.29V505.45c1,1.16,2,2.31,3,3.43,1.56,1.7,3.25,3.31,5,4.9Zm14.43-.59q-4.15.15-8.33.34V520.63a59.58,59.58,0,0,0,4.49,5.12c1.24,1.24,2.53,2.38,3.84,3.48Zm13.25-.35-7.88.19V532.71c2.58,1.54,5.22,3,7.88,4.43Zm15-.38-.83,0-3.31.08-6,.15V539.87c2,1.09,4,2.17,6,3.31,1.4.81,2.77,1.66,4.14,2.53Zm11.79-.37c-2.16.08-4.31.16-6.46.22l-1.06,0V548.6c.35.26.71.48,1.06.74,1.25.92,2.5,1.84,3.69,2.85.94.81,1.85,1.67,2.77,2.51Zm13.09-.55-1.91.1-3.18.16-3.73.14v-67c2.38,2.35,4.71,4.75,6.91,7.26.65.75,1.27,1.53,1.91,2.28Zm10.49-.62c-1.41.1-2.82.21-4.23.29l-1.34.07V574.46c.44.59.91,1.17,1.34,1.77,1.47,2,2.86,4.11,4.23,6.22Zm9.19-.65-2.17.15c-.7.06-1.4.1-2.1.15V590.06c1.46,2.29,2.9,4.61,4.27,7Zm7.36-2a2.82,2.82,0,0,1-.94.94,3.8,3.8,0,0,1-.64.31,9.61,9.61,0,0,1-2.16.45V604a48.06,48.06,0,0,1,3.83,11.51,22.56,22.56,0,0,1,.45,4.11A4.82,4.82,0,0,1,879,622Zm522.1,313.74a12.05,12.05,0,0,1-5.23-.18,12.21,12.21,0,1,1,10.78-21.28,12.2,12.2,0,0,0-5.55,21.46Z"/></svg>