<svg id="Layer_1" data-name="Layer 1" xmlns="http://www.w3.org/2000/svg" viewBox="0 0 130 130"><defs><style>.cls-1{fill:#010101;}.cls-2{fill:#1e1d1d;}.cls-3{fill:#232222;}.cls-4{fill:#7c7979;}.cls-5{fill:#747171;}.cls-6{fill:#848181;}.cls-7{fill:#676464;}.cls-8{fill:#020202;}</style></defs><title>social</title><path class="cls-1" d="M128.18,54.78A64.19,64.19,0,0,0,78.1,2.44c-5.73-1.24-11.51-1.14-17.32-1A51.81,51.81,0,0,0,45.35,4.23,64.2,64.2,0,0,0,4.41,44.81a52.39,52.39,0,0,0-3,15.85c-.09,4.88-.31,9.76.51,14.59a64.24,64.24,0,0,0,50.34,52.47,73,73,0,0,0,7.78.93H61c.06-.25.25-.21.43-.18h0c.19,0,.37,0,.46.18h1.33a6,6,0,0,1,3.55,0h1.56c.09-.21.26-.22.45-.19h0c.19,0,.38-.07.44.19h.44a.55.55,0,0,1,.41-.11,45.75,45.75,0,0,0,14.66-2.65,64.23,64.23,0,0,0,43-47.86,67.29,67.29,0,0,0,1-8v-.89c-.35-.22-.26-.44,0-.66V67.15a1.68,1.68,0,0,1,0-1.77v-.67a1.7,1.7,0,0,1,0-1.78V61.6c-.24-.15-.3-.29,0-.44v-.89C128.4,58.45,128.5,56.6,128.18,54.78ZM102.46,80.09Q84.85,91.81,67.27,103.55a3.63,3.63,0,0,1-4.42,0Q45.27,91.82,27.66,80.1a3.88,3.88,0,0,1-1.89-3.51q0-11.53,0-23.08A3.89,3.89,0,0,1,27.65,50Q45.26,38.3,62.84,26.54a3.63,3.63,0,0,1,4.42,0Q84.9,38.31,102.55,50.05a3.71,3.71,0,0,1,1.79,3.34c0,3.88,0,7.77,0,11.65s0,7.7,0,11.54A3.84,3.84,0,0,1,102.46,80.09Z"/><path class="cls-2" d="M63.17,128.65h3.55A11.13,11.13,0,0,0,63.17,128.65Z"/><path class="cls-2" d="M63.17,128.65a11.13,11.13,0,0,1,3.55,0A6,6,0,0,0,63.17,128.65Z"/><path class="cls-3" d="M128.66,64.71V62.93A3,3,0,0,0,128.66,64.71Z"/><path class="cls-3" d="M128.66,64.71a3,3,0,0,1,0-1.78A1.7,1.7,0,0,0,128.66,64.71Z"/><path class="cls-3" d="M128.66,67.15V65.38A3,3,0,0,0,128.66,67.15Z"/><path class="cls-3" d="M128.66,67.15a3,3,0,0,1,0-1.77A1.68,1.68,0,0,0,128.66,67.15Z"/><path class="cls-4" d="M128.66,69.15v-.66A.51.51,0,0,0,128.66,69.15Z"/><path class="cls-4" d="M128.66,69.15a.51.51,0,0,1,0-.66C128.4,68.71,128.31,68.93,128.66,69.15Z"/><path class="cls-5" d="M128.66,61.6v-.44A.3.3,0,0,0,128.66,61.6Z"/><path class="cls-5" d="M128.66,61.6a.3.3,0,0,1,0-.44C128.36,61.31,128.42,61.45,128.66,61.6Z"/><path class="cls-6" d="M61,128.65h.44v-.11C61.23,128.54,61.07,128.52,61,128.65Z"/><path class="cls-6" d="M61.38,128.47h0c-.18,0-.37-.07-.43.18.12-.13.28-.11.44-.11A.2.2,0,0,1,61.38,128.47Z"/><path class="cls-7" d="M61.47,128.58s0,.07-.08.07h.45a.47.47,0,0,0-.37-.11S61.48,128.57,61.47,128.58Z"/><path class="cls-7" d="M61.38,128.47h0s.08,0,.09.07a.47.47,0,0,1,.37.11C61.75,128.44,61.57,128.43,61.38,128.47Z"/><path class="cls-7" d="M61.47,128.58s0,0,0,0h-.08v.11S61.45,128.63,61.47,128.58Z"/><path class="cls-7" d="M61.39,128.54h.08s0,0-.09-.07a.2.2,0,0,0,0,.07Z"/><path class="cls-7" d="M68.72,128.54c-.16,0-.32,0-.44.11h.44s0-.07,0-.11Z"/><path class="cls-7" d="M68.73,128.54v-.08c-.19,0-.36,0-.45.19.12-.14.28-.11.44-.11Z"/><path class="cls-6" d="M68.79,128.59a.1.1,0,0,1-.07.06h.45a.47.47,0,0,0-.37-.11A.07.07,0,0,1,68.79,128.59Z"/><path class="cls-6" d="M68.73,128.46h0a.17.17,0,0,1,.07.08.47.47,0,0,1,.37.11C69.11,128.39,68.92,128.44,68.73,128.46Z"/><path class="cls-6" d="M68.79,128.59a.07.07,0,0,0,0-.05h-.07s0,.07,0,.11A.1.1,0,0,0,68.79,128.59Z"/><path class="cls-6" d="M68.8,128.54a.17.17,0,0,0-.07-.08h0v.08Z"/><path class="cls-1" d="M47.69,60.56c4.42-3,8.83-5.92,13.26-8.84a1.52,1.52,0,0,0,.77-1.43c0-4.43,0-8.87,0-13.31a3.36,3.36,0,0,0-.13-1.51l-26.4,17.6c3.88,2.59,7.68,5.12,11.47,7.68C47.13,61.08,47.37,60.77,47.69,60.56Z"/><path class="cls-1" d="M68.91,51.53l13.7,9.17a.67.67,0,0,0,.88,0c3.79-2.55,7.6-5.09,11.47-7.67L68.58,35.48c-.09.17-.15.23-.15.29q0,7.44,0,14.87A1,1,0,0,0,68.91,51.53Z"/><path class="cls-1" d="M60.84,78.29c-4.12-2.72-8.22-5.48-12.33-8.22-1.49-1-1.49-1-3,0L35.16,77,61.7,94.71V93.53c0-4.55,0-9.1,0-13.64A1.67,1.67,0,0,0,60.84,78.29Z"/><path class="cls-1" d="M82.37,69.57C78.69,72,75.1,74.64,71.29,76.88a5.23,5.23,0,0,0-2.94,5.54c.25,4,.07,8,.07,12.29L95,77c-3.86-2.58-7.61-5.07-11.32-7.6C83.08,69,82.78,69.29,82.37,69.57Z"/><path class="cls-1" d="M65.53,57.34a.67.67,0,0,0-.88-.05C60.83,59.86,57,62.42,53.06,65c3.95,2.64,7.81,5.22,11.66,7.81.31.2.52.09.78-.09l11.56-7.71Z"/><path class="cls-8" d="M32.56,59.41V70.68L41,65Z"/><path class="cls-8" d="M97.57,70.69V59.39l-8.45,5.66Z"/></svg>