<svg xmlns="http://www.w3.org/2000/svg" viewBox="0 0 199.58 223.4"><g data-name="Layer 2"><g data-name="Layer 1"><path d="M89.59 221c9.43 5.51 21.31.57 31-4.56 24.44-13 48.3-27.3 70.4-44 2.63-2 5.33-4.11 6.86-7 1.72-3.29 1.76-7.18 1.76-10.9V71.27c0-5.29-.07-10.86-2.72-15.44s-7.47-7.44-12.08-10.07L113.45 4.88c-3.82-2.19-7.81-4.43-12.2-4.82-6.18-.55-12 2.63-17.4 5.7L18 43.3c-6 3.39-12.21 7.1-15.34 13.18C.09 61.51 0 67.42 0 73.08v76.14c0 5 0 10 1.5 14.78 1.79 5.67 5.42 8.61 10.23 11.65M97.13 223zM55.44 23.08zM1.14 65.43zM113 47.08a63.86 63.86 0 0 1 43.64 31.66L127.76 95.4c-7.15-12-22.76-18.31-36.25-14.58S67.87 98 67.93 112s10.35 27.29 23.87 30.9 29.07-2.81 36.11-14.91l28.75 16.69A66.56 66.56 0 0 1 106 176.86a65.41 65.41 0 0 1-69.31-81 66.36 66.36 0 0 1 55.77-49.23 63 63 0 0 1 8.79-.52c2.69 0 5.55 0 8.24.22M139 128.71c.42-2.9.72-5.8.88-8.72.22-.67-.32-.45-.59-.45-1.37 0-2.75-.05-4.13-.07v-4.34c0-.61.18-.78.77-.76h3.71c.39 0 .86.26.91-.47.1-1.53.91-5.74.94-6.26.06-1-.1-1.18-1.12-1.24h-2.24c-.75 0-1.2-.24-1.16-1.1s0-1.56 0-2.35.29-1 1-1h2.88a1.24 1.24 0 0 0 1.32-1.13 9.41 9.41 0 0 0 .13-1c.17-1.77.36-3.54.53-5.32a1 1 0 0 1 1.18-1h2.13c1.54 0 1.63.11 1.43 1.67s-.34 3.4-.52 5.1c-.16 1.43.17 1.76 1.65 1.78h2.67c2.43 0 2.5-.08 2.68-2.47.12-1.6.31-3.19.48-4.78.13-1.17.28-1.28 1.5-1.31.5 0 1.9-.19 2-.15 1.44.52 1.41.52 1.24 2.07-.2 1.8-.41 3.6-.53 5.41-.06.88.31 1.23 1.16 1.22s1.63 0 2.45 0 1.15.34 1.11 1.15 0 1.49 0 2.24-.36 1.12-1.15 1.1h-3c-.64 0-1.12.26-1.22.94-.19 1.41-.24 5.84-.39 6.49s.15.58.57.58h3.42c.49 0 .69.12.68.65v3.85c0 .51-.16.68-.67.67h-3.63c-.71 0-1 .15-1.06.89-.21 2.55-.51 5.1-.72 7.65-.05.68-.24.92-1 .89a33.81 33.81 0 0 0-3.63 0c-.81 0-1-.16-.9-1 .32-2.54.53-5.1.81-7.65.07-.62-.11-.79-.73-.78h-4.81c-.56 0-.71.18-.75.72-.19 2.27-.42 4.53-.67 6.8-.2 1.89-.23 1.93-2.14 1.87-1.06-.23-2.27.07-3.47-.39zm-29.22-82.56zm.18 0zM40.1 81.83l.11-.12a.41.41 0 0 0-.11.12zm114.73-52.75zm-106-2.15zm0 0zm-4.9 2.77zm0 0zm155.42 129.69c.06 0 0 0 0 .05v-.33a2.72 2.72 0 0 0 0 .28zm-64-141.63zm-22-12.45zm-33.3 3.26v-.05zM23.17 41.49zm20.38 152.37z"/><path d="M147.23 114.39a17.55 17.55 0 0 1 1.92 0h2.57c.36 0 .57-.06.61-.51q.28-3.24.65-6.48c.07-.58-.13-.72-.68-.71h-4.92c-.42 0-.63.08-.67.57-.18 2-.36 4-.63 5.95-.15 1.01.19 1.3 1.15 1.18z"/></g></g></svg>