<svg xmlns="http://www.w3.org/2000/svg" viewBox="0 0 219 225"><g data-name="Layer 2"><path d="M210.14 106.74c3.46-5.26 7.19-10.48 8.86-16.74 0-.75-14.74-61.55-21.12-85.36A7.55 7.55 0 0 0 195 0h-1.5C189.39 1 133 15 109 21.51a10 10 0 0 0-6.57 5.09c-2.67 4.81-5.64 9.46-8.13 14.35-1.89 3.71-4.4 5.26-8.62 4.95-4.84-.35-9.75.13-14.61-.14s-8.28 1.42-11.61 4.79C41.18 69 1 109.42 0 111.75v.75c.94 1.6 42.07 43.7 61.57 63.24a11 11 0 0 0 8.36 3.45c6-.06 12 0 18 0a5.51 5.51 0 0 1 5.43 3.13c2.78 5 5.81 9.92 8.51 15a12.19 12.19 0 0 0 8.31 6.34c8.94 2.33 64.57 18.34 84.09 21.39h.73c1.78-1.2 2.48-3 3-5 6.73-27.65 21-84.24 21-85-.88-2-6.36-13.75-8.91-17.12-2.96-3.93-2.57-7.22.05-11.19zM62.73 83.45c9.79-10 19.63-19.93 29.35-30A12.66 12.66 0 0 1 98.5 50c21.13-5.38 42.24-10.85 64.3-16.54-9 15.48-17.51 30.26-26.06 45-3.93 6.87-7.88 13.66-11.74 20.54-.87 1.53-1.75 2.38-3.72 2.38-24.72-.08-49.45 0-74.18-.06a9.88 9.88 0 0 1-1.48-.32c5.87-6 11.48-11.8 17.11-17.55zm66.75 99.25c-10.28-2.63-20.53-5.35-30.83-7.88a13.88 13.88 0 0 1-7-4c-14.54-15-29.21-29.81-43.83-44.7-.61-.62-1.18-1.26-2.44-2.6h4.12c23.49 0 47 0 70.49-.07 2.74 0 4.15.87 5.51 3.24 11.64 20.38 23.44 40.66 35.17 61 .55.94 1.42 1.75 1.37 3.31zm71.18-69c-6.17 21.82-12.25 43.67-18.61 66.43-3-5.17-5.55-9.57-8.09-14q-14.8-25.57-29.62-51.13c-.93-1.6-1.42-2.85-.32-4.73 12.37-21.27 24.62-42.52 36.92-63.78a14.49 14.49 0 0 1 1.2-1.51c2.92 10.51 5.74 20.69 8.58 30.85 3.16 11.29 6.35 22.56 9.48 33.85.36 1.32.88 2.48.46 3.99z" fill="#222c37" data-name="Layer 1"/></g></svg>