<svg xmlns="http://www.w3.org/2000/svg" viewBox="0 0 199.58 223.4"><title>c#</title><g id="Layer_2" data-name="Layer 2"><g id="Layer_1-2" data-name="Layer 1"><path d="M89.59,221c9.43,5.51,21.31.57,31-4.56,24.44-13,48.3-27.3,70.4-44,2.63-2,5.33-4.11,6.86-7,1.72-3.29,1.76-7.18,1.76-10.9l0-83.27c0-5.29-.07-10.86-2.72-15.44s-7.47-7.44-12.08-10.07L113.45,4.88c-3.82-2.19-7.81-4.43-12.2-4.82-6.18-.55-12,2.63-17.4,5.7L18,43.3c-6,3.39-12.21,7.1-15.34,13.18C.09,61.51,0,67.42,0,73.08l0,76.14c0,5,0,10,1.5,14.78,1.79,5.67,5.42,8.61,10.23,11.65M97.13,223h0ZM55.44,23.08h0v0h0l0,0ZM1.14,65.43h0ZM113,47.08a63.86,63.86,0,0,1,43.64,31.66L127.76,95.4c-7.15-12-22.76-18.31-36.25-14.58S67.87,98,67.93,112,78.28,139.29,91.8,142.9s29.07-2.81,36.11-14.91l28.75,16.69A66.56,66.56,0,0,1,106,176.86a65.41,65.41,0,0,1-69.31-81A66.36,66.36,0,0,1,92.46,46.63a63,63,0,0,1,8.79-.52c2.69,0,5.55,0,8.24.22M139,128.71c.42-2.9.72-5.8.88-8.72.22-.67-.32-.45-.59-.45-1.37,0-2.75-.05-4.13-.07,0-1.45,0-2.89,0-4.34,0-.61.18-.78.77-.76,1,0,3.5,0,3.71,0,.39,0,.86.26.91-.47.1-1.53.91-5.74.94-6.26.06-1-.1-1.18-1.12-1.24-.74,0-1.49,0-2.24,0s-1.2-.24-1.16-1.1,0-1.56,0-2.35.29-1,1-1c1,0,1.92,0,2.88,0a1.24,1.24,0,0,0,1.32-1.13,9.41,9.41,0,0,0,.13-1c.17-1.77.36-3.54.53-5.32a1,1,0,0,1,1.18-1c.71,0,1.42,0,2.13,0,1.54,0,1.63.11,1.43,1.67s-.34,3.4-.52,5.1c-.16,1.43.17,1.76,1.65,1.78.89,0,1.78,0,2.67,0,2.43,0,2.5-.08,2.68-2.47.12-1.6.31-3.19.48-4.78.13-1.17.28-1.28,1.5-1.31.5,0,1.9-.19,2-.15,1.44.52,1.41.52,1.24,2.07-.2,1.8-.41,3.6-.53,5.41-.06.88.31,1.23,1.16,1.22s1.63,0,2.45,0,1.15.34,1.11,1.15,0,1.49,0,2.24-.36,1.12-1.15,1.1c-1,0-2,0-3,0-.64,0-1.12.26-1.22.94-.19,1.41-.24,5.84-.39,6.49s.15.58.57.58c1.14,0,2.28,0,3.42,0,.49,0,.69.12.68.65,0,1.28,0,2.57,0,3.85,0,.51-.16.68-.67.67-1.21,0-2.43,0-3.63,0-.71,0-1,.15-1.06.89-.21,2.55-.51,5.1-.72,7.65-.05.68-.24.92-1,.89a33.81,33.81,0,0,0-3.63,0c-.81,0-1-.16-.9-1,.32-2.54.53-5.1.81-7.65.07-.62-.11-.79-.73-.78-1.6,0-3.21,0-4.81,0-.56,0-.71.18-.75.72-.19,2.27-.42,4.53-.67,6.8-.2,1.89-.23,1.93-2.14,1.87C141.41,128.87,140.2,129.17,139,128.71ZM109.78,46.15Zm.18,0h0ZM40.1,81.83h0l.11-.12h0A.41.41,0,0,0,40.1,81.83ZM154.83,29.08h0v0Zm-106-2.15h0Zm0,0h0Zm-4.9,2.77h0Zm0,0h0ZM199.35,159.39c.06,0,0,0,0,.05v-.33A2.72,2.72,0,0,0,199.35,159.39Zm-64-141.63Zm-22-12.45h0s0,0,0,0ZM80.05,8.57h0l0-.05ZM23.17,41.49ZM43.55,193.86Z"/><path d="M147.23,114.39a17.55,17.55,0,0,1,1.92,0c.86,0,1.71,0,2.57,0,.36,0,.57-.06.61-.51q.28-3.24.65-6.48c.07-.58-.13-.72-.68-.71-1.64,0-3.28,0-4.92,0-.42,0-.63.08-.67.57-.18,2-.36,4-.63,5.95C145.93,114.22,146.27,114.51,147.23,114.39Z"/></g></g></svg>